<svg width="32" height="32" viewBox="0 0 32 32" fill="none" xmlns="http://www.w3.org/2000/svg">
<path opacity="0.1" fill-rule="evenodd" clip-rule="evenodd" d="M0 16C0 7.16344 7.16344 0 16 0C24.8366 0 32 7.16344 32 16C32 24.8366 24.8366 32 16 32C7.16344 32 0 24.8366 0 16Z" fill="white"/>
<path fill-rule="evenodd" clip-rule="evenodd" d="M16.825 8C16.7388 8 16.6561 8.03242 16.5952 8.09012C16.5342 8.14782 16.5 8.22609 16.5 8.30769V19.3846C16.5 20.2338 15.772 20.9231 14.875 20.9231C13.978 20.9231 13.25 20.2338 13.25 19.3846C13.25 18.5354 13.978 17.8462 14.875 17.8462C14.9612 17.8462 15.0439 17.8137 15.1048 17.756C15.1658 17.6983 15.2 17.6201 15.2 17.5385V15.0769C15.2 14.9953 15.1658 14.9171 15.1048 14.8594C15.0439 14.8016 14.9612 14.7692 14.875 14.7692C12.184 14.7692 10 16.8372 10 19.3846C10 21.9323 12.184 24 14.875 24C17.5657 24 19.75 21.9323 19.75 19.3846V13.6905C20.4648 13.9967 21.2404 14.1547 22.025 14.1538H22.675C22.7612 14.1538 22.8439 14.1214 22.9048 14.0637C22.9658 14.006 23 13.9278 23 13.8462V11.3846C23 11.303 22.9658 11.2247 22.9048 11.167C22.8439 11.1093 22.7612 11.0769 22.675 11.0769H22.025C20.7695 11.0769 19.75 10.1117 19.75 8.92308V8.30769C19.75 8.22609 19.7158 8.14782 19.6548 8.09012C19.5939 8.03242 19.5112 8 19.425 8H16.825Z" fill="white"/>
</svg>
