<svg width="32" height="32" viewBox="0 0 32 32" fill="none" xmlns="http://www.w3.org/2000/svg">
<path opacity="0.1" fill-rule="evenodd" clip-rule="evenodd" d="M0 16C0 7.16344 7.16344 0 16 0C24.8366 0 32 7.16344 32 16C32 24.8366 24.8366 32 16 32C7.16344 32 0 24.8366 0 16Z" fill="white"/>
<path d="M23 13.418C23 11.5268 21.6372 10 19.9491 10H12.0509C10.3628 10 9 11.5268 9 13.418V17.582C9 19.4732 10.3628 21 12.0509 21H19.9491C21.6372 21 23 19.4732 23 17.582V13.418ZM18.0133 15.7082L14.8695 17.6514C14.7301 17.7382 14.6062 17.6167 14.6062 17.4432V13.47C14.6062 13.2965 14.7301 13.1751 14.8695 13.2618L18.0442 15.2918C18.1836 15.3959 18.1527 15.6215 18.0133 15.7082Z" fill="white"/>
</svg>
