<svg width="56" height="56" viewBox="0 0 56 56" fill="none" xmlns="http://www.w3.org/2000/svg">
<rect width="56" height="56" rx="16" fill="#5FC04A"/>
<g clip-path="url(#clip0_54_1535)">
<path fill-rule="evenodd" clip-rule="evenodd" d="M27.9965 21.382C24.1754 21.382 21.0788 24.4303 21.0788 28.1912C21.0788 30.0717 21.8503 31.7717 23.1044 33.0048C23.1961 33.0943 23.269 33.2013 23.3188 33.3194C23.3686 33.4376 23.3942 33.5645 23.3942 33.6927C23.3942 33.8208 23.3686 33.9477 23.3188 34.0659C23.269 34.184 23.1961 34.291 23.1044 34.3805C22.9177 34.5633 22.6668 34.6657 22.4054 34.6657C22.1441 34.6657 21.8932 34.5633 21.7065 34.3805C20.8821 33.5742 20.227 32.6115 19.7797 31.5486C19.3323 30.4858 19.1018 29.3443 19.1016 28.1912C19.1016 23.3567 23.0835 19.4375 27.9965 19.4375C32.9095 19.4375 36.8914 23.3567 36.8914 28.1912C36.8912 29.3443 36.6606 30.4858 36.2133 31.5486C35.766 32.6115 35.1109 33.5742 34.2865 34.3805C34.0998 34.5633 33.8488 34.6657 33.5875 34.6657C33.3262 34.6657 33.0753 34.5633 32.8886 34.3805C32.7968 34.291 32.7239 34.184 32.6742 34.0659C32.6244 33.9477 32.5987 33.8208 32.5987 33.6927C32.5987 33.5645 32.6244 33.4376 32.6742 33.3194C32.7239 33.2013 32.7968 33.0943 32.8886 33.0048C33.5301 32.378 34.0399 31.6293 34.388 30.8026C34.7361 29.976 34.9154 29.0881 34.9155 28.1912C34.9155 24.4303 31.8176 21.382 27.9965 21.382Z" fill="white"/>
<path fill-rule="evenodd" clip-rule="evenodd" d="M28.0022 16.1958C21.2702 16.1958 15.8119 21.5652 15.8119 28.1913C15.8119 29.7716 16.1277 31.336 16.7408 32.7925C17.3538 34.249 18.2518 35.5684 19.3819 36.673C19.4736 36.7625 19.5465 36.8695 19.5963 36.9876C19.646 37.1058 19.6717 37.2327 19.6717 37.3608C19.6717 37.489 19.646 37.6159 19.5963 37.7341C19.5465 37.8522 19.4736 37.9592 19.3819 38.0487C19.1952 38.2311 18.9446 38.3333 18.6836 38.3333C18.4225 38.3333 18.1719 38.2311 17.9852 38.0487C16.672 36.7647 15.6285 35.2314 14.916 33.5387C14.2035 31.8459 13.8363 30.0279 13.8359 28.1913C13.8359 20.4916 20.1782 14.25 28.0022 14.25C35.8261 14.25 42.1684 20.4916 42.1684 28.19C42.1684 32.0398 40.5822 35.5262 38.0191 38.0487C37.8324 38.2315 37.5814 38.3339 37.3201 38.3339C37.0588 38.3339 36.8079 38.2315 36.6212 38.0487C36.5294 37.9592 36.4565 37.8522 36.4068 37.7341C36.357 37.6159 36.3313 37.489 36.3313 37.3608C36.3313 37.2327 36.357 37.1058 36.4068 36.9876C36.4565 36.8695 36.5294 36.7625 36.6212 36.673C37.7513 35.5684 38.6492 34.249 39.2623 32.7925C39.8753 31.336 40.1912 29.7716 40.1912 28.1913C40.1912 21.5652 34.7342 16.1958 28.0022 16.1958Z" fill="white"/>
<path d="M25.6093 34.572C26.6946 33.3297 27.2386 32.7098 27.9108 32.6693C27.9709 32.6667 28.0337 32.6667 28.0939 32.6693C28.766 32.7098 29.31 33.331 30.3967 34.5707C32.7636 37.271 33.9458 38.6206 33.6136 39.7857C33.5857 39.8849 33.5508 39.9819 33.509 40.076C33.0213 41.1667 31.3487 41.1667 28.0023 41.1667C24.6559 41.1667 22.9834 41.1667 22.4969 40.076C22.4548 39.9819 22.4194 39.8849 22.391 39.7857C22.0589 38.6206 23.241 37.271 25.6079 34.5707L25.6093 34.572ZM31.5436 27.7092C31.5436 28.6484 31.1705 29.5491 30.5064 30.2132C29.8422 30.8773 28.9415 31.2504 28.0023 31.2504C27.0631 31.2504 26.1624 30.8773 25.4983 30.2132C24.8342 29.5491 24.4611 28.6484 24.4611 27.7092C24.4611 26.77 24.8342 25.8693 25.4983 25.2052C26.1624 24.5411 27.0631 24.168 28.0023 24.168C28.9415 24.168 29.8422 24.5411 30.5064 25.2052C31.1705 25.8693 31.5436 26.77 31.5436 27.7092Z" fill="white"/>
</g>
<defs>
<clipPath id="clip0_54_1535">
<rect width="34" height="34" fill="white" transform="translate(11 10)"/>
</clipPath>
</defs>
</svg>
