<svg width="25" height="24" viewBox="0 0 25 24" fill="none" xmlns="http://www.w3.org/2000/svg">
<path d="M21.7416 12.531L14.9916 19.281C14.8508 19.4218 14.66 19.5008 14.4609 19.5008C14.2619 19.5008 14.071 19.4218 13.9303 19.281C13.7896 19.1403 13.7105 18.9494 13.7105 18.7504C13.7105 18.5514 13.7896 18.3605 13.9303 18.2198L19.4006 12.7504H4.71094C4.51203 12.7504 4.32126 12.6714 4.18061 12.5307C4.03996 12.3901 3.96094 12.1993 3.96094 12.0004C3.96094 11.8015 4.03996 11.6107 4.18061 11.4701C4.32126 11.3294 4.51203 11.2504 4.71094 11.2504H19.4006L13.9303 5.78104C13.7896 5.64031 13.7105 5.44944 13.7105 5.25042C13.7105 5.05139 13.7896 4.86052 13.9303 4.71979C14.071 4.57906 14.2619 4.5 14.4609 4.5C14.66 4.5 14.8508 4.57906 14.9916 4.71979L21.7416 11.4698C21.8113 11.5394 21.8666 11.6222 21.9044 11.7132C21.9421 11.8043 21.9615 11.9019 21.9615 12.0004C21.9615 12.099 21.9421 12.1966 21.9044 12.2876C21.8666 12.3787 21.8113 12.4614 21.7416 12.531Z" fill="white"/>
</svg>
