<svg width="56" height="57" viewBox="0 0 56 57" fill="none" xmlns="http://www.w3.org/2000/svg">
<rect y="0.19043" width="56" height="56" rx="16" fill="#5FC04A"/>
<path d="M39.538 23.7046L29.7896 25.0964C32.1621 21.1655 38.7295 10.2853 38.7295 10.2853C39.2804 9.48662 38.1608 8.56687 37.4831 9.25181C29.8911 16.8292 22.2967 24.4074 14.7884 32.0571C14.2976 32.5047 14.7348 33.3847 15.3921 33.2636L25.5215 31.7223L17.7061 44.7678C16.8359 46.2035 16.3825 47.2248 16.3841 47.5441C16.0998 48.121 16.8302 47.7773 18.8558 45.872C25.0568 40.0911 33.9918 31.13 40.153 24.9306C40.6348 24.4797 40.2131 23.5802 39.538 23.7046ZM18.4203 45.1586C18.7989 44.5614 27.2529 31.2364 27.2529 31.2364C27.5365 30.8204 27.1546 30.2159 26.6525 30.3004C26.6395 30.3021 20.6075 31.1194 17.3023 31.5679L34.0381 14.9596C31.222 19.6664 27.6356 25.6627 27.6121 25.6968C27.2594 26.2225 27.7478 26.9854 28.3807 26.8668L37.6359 25.4571C31.8119 31.4907 23.9217 39.6629 18.4203 45.1586Z" fill="white"/>
</svg>
