<svg width="56" height="57" viewBox="0 0 56 57" fill="none" xmlns="http://www.w3.org/2000/svg">
<rect y="0.19043" width="56" height="56" rx="16" fill="#5FC04A"/>
<path d="M12.9833 39.4501V36.9501H16.4667C16.8083 37.9167 17.725 38.6167 18.8167 38.6167C20.1917 38.6167 21.3167 37.4917 21.3167 36.1167C21.3167 35.7001 21.2083 35.3167 21.025 34.9667L26.4 29.1751L37.4583 32.6001C37.5416 32.6251 37.625 32.6334 37.7083 32.6334C37.8417 32.6334 37.975 32.6001 38.1 32.5334C38.3 32.4334 38.4417 32.2501 38.5083 32.0417L38.7583 31.2417L40.35 31.7334C40.5166 31.7834 40.675 31.8084 40.8417 31.8084C41.55 31.8084 42.2167 31.3501 42.4333 30.6334L43.9166 25.8584C44.0416 25.4501 43.8333 25.0251 43.45 24.8584L44.4666 23.8001C44.6666 23.5917 44.7416 23.2917 44.675 23.0167C44.6 22.7334 44.3917 22.5167 44.1166 22.4334L22.6 15.7917C22.1833 15.6584 21.725 15.7001 21.3333 15.9084C20.9417 16.1167 20.65 16.4667 20.5167 16.8917L18.05 24.8501C17.775 25.7251 18.275 26.6667 19.15 26.9334L24.6333 28.6334L19.8083 33.8334C19.5 33.7001 19.1667 33.6251 18.8167 33.6251C17.7333 33.6251 16.8166 34.3251 16.4667 35.2917H12.9833V32.7917C12.9833 32.3334 12.6083 31.9584 12.15 31.9584C11.6917 31.9584 11.3167 32.3334 11.3167 32.7917V39.4584C11.3167 39.9167 11.6917 40.2917 12.15 40.2917C12.6083 40.2917 12.9833 39.9167 12.9833 39.4501ZM40.8333 30.1584L39.2417 29.6667L39.4333 29.0584L42.0083 26.3667L40.8333 30.1584ZM19.6417 25.3417L22.1083 17.3834L42.3083 23.6417L38.0833 28.0501C37.9916 28.1417 37.925 28.2584 37.8916 28.3834L37.15 30.7751L19.6417 25.3417ZM18.8167 35.2834C19.275 35.2834 19.65 35.6584 19.65 36.1167C19.65 36.5751 19.275 36.9501 18.8167 36.9501C18.3583 36.9501 17.9833 36.5751 17.9833 36.1167C17.9833 35.6584 18.3583 35.2834 18.8167 35.2834Z" fill="white"/>
</svg>
