<svg width="56" height="56" viewBox="0 0 56 56" fill="none" xmlns="http://www.w3.org/2000/svg">
<rect width="56" height="56" rx="16" fill="#5FC04A"/>
<path d="M36.9148 18.8711C36.5735 19.2124 36.5735 19.7659 36.9148 20.1072C37.2562 20.4486 37.8096 20.4486 38.151 20.1072L36.9148 18.8711ZM40.4819 17.7763C40.8233 17.4349 40.8233 16.8815 40.4819 16.5401C40.1406 16.1988 39.5871 16.1988 39.2457 16.5401L40.4819 17.7763ZM39.2457 16.5401L36.9148 18.8711L38.151 20.1072L40.4819 17.7763L39.2457 16.5401Z" fill="white"/>
<path d="M36.9463 28.5354L36.3282 27.9173V27.9173L36.9463 28.5354ZM33.5625 29.3814L34.1805 28.7633L33.5625 29.3814ZM36.1004 29.3814L36.7184 29.9994L36.7184 29.9994L36.1004 29.3814ZM27.6407 20.9217L27.0227 20.3037H27.0227L27.6407 20.9217ZM27.6407 23.4596L27.0227 24.0777L27.6407 23.4596ZM28.4867 20.0758L29.1048 20.6939L28.4867 20.0758ZM27.8686 19.4577L27.0227 20.3037L28.2588 21.5398L29.1048 20.6939L27.8686 19.4577ZM27.0227 24.0777L32.9444 29.9994L34.1805 28.7633L28.2588 22.8415L27.0227 24.0777ZM36.7184 29.9994L37.5644 29.1535L36.3282 27.9173L35.4823 28.7633L36.7184 29.9994ZM37.5644 29.1535C40.2418 26.4761 40.2418 22.1351 37.5644 19.4577L36.3282 20.6939C38.3229 22.6886 38.3229 25.9226 36.3282 27.9173L37.5644 29.1535ZM29.1048 20.6939C31.0995 18.6992 34.3335 18.6992 36.3282 20.6939L37.5644 19.4577C34.887 16.7803 30.546 16.7803 27.8686 19.4577L29.1048 20.6939ZM28.2588 22.8415C27.9913 22.5741 27.9201 22.3507 27.9179 22.1969C27.9158 22.0488 27.9752 21.8234 28.2588 21.5398L27.0227 20.3037C26.4855 20.8408 26.1595 21.4989 26.1699 22.2219C26.1801 22.9391 26.5192 23.5743 27.0227 24.0777L28.2588 22.8415ZM35.4823 28.7633C35.2148 29.0308 34.9915 29.102 34.8376 29.1042C34.6896 29.1063 34.4641 29.0468 34.1805 28.7633L32.9444 29.9994C33.4816 30.5366 34.1396 30.8626 34.8626 30.8522C35.5798 30.842 36.215 30.5029 36.7184 29.9994L35.4823 28.7633Z" fill="white"/>
<path d="M19.5035 38.7543C19.8449 38.413 19.8449 37.8595 19.5035 37.5181C19.1622 37.1768 18.6087 37.1768 18.2674 37.5181L19.5035 38.7543ZM15.9365 39.8491C15.5951 40.1904 15.5951 40.7439 15.9365 41.0852C16.2778 41.4266 16.8313 41.4266 17.1726 41.0852L15.9365 39.8491ZM18.2674 37.5181L15.9365 39.8491L17.1726 41.0852L19.5035 38.7543L18.2674 37.5181Z" fill="white"/>
<path d="M28.7776 34.1662L28.1595 34.7843L28.7776 34.1662ZM20.318 28.2445L19.6999 27.6264L19.6999 27.6264L20.318 28.2445ZM22.8559 28.2445L23.474 27.6264L22.8559 28.2445ZM19.472 29.0904L20.0901 29.7085L20.0901 29.7085L19.472 29.0904ZM20.0901 29.7085L20.9361 28.8626L19.6999 27.6264L18.854 28.4724L20.0901 29.7085ZM22.2378 28.8626L28.1595 34.7843L29.3957 33.5481L23.474 27.6264L22.2378 28.8626ZM28.1595 36.086L27.3136 36.932L28.5497 38.1681L29.3957 37.3222L28.1595 36.086ZM27.3136 36.932C25.3189 38.9267 22.0848 38.9267 20.0901 36.932L18.854 38.1681C21.5314 40.8456 25.8723 40.8456 28.5497 38.1681L27.3136 36.932ZM18.854 28.4724C16.1765 31.1498 16.1765 35.4907 18.854 38.1681L20.0901 36.932C18.0954 34.9373 18.0954 31.7032 20.0901 29.7085L18.854 28.4724ZM23.474 27.6264C22.9706 27.123 22.3353 26.7839 21.6181 26.7736C20.8951 26.7633 20.2371 27.0892 19.6999 27.6264L20.9361 28.8626C21.2197 28.579 21.4451 28.5195 21.5931 28.5216C21.747 28.5238 21.9703 28.5951 22.2378 28.8626L23.474 27.6264ZM29.3957 37.3222C29.8991 36.8188 30.2382 36.1835 30.2485 35.4664C30.2589 34.7434 29.9329 34.0853 29.3957 33.5481L28.1595 34.7843C28.4431 35.0679 28.5026 35.2933 28.5005 35.4413C28.4983 35.5952 28.427 35.8185 28.1595 36.086L29.3957 37.3222Z" fill="white"/>
<path d="M25.8429 25.281C25.5015 25.6224 25.5015 26.1758 25.8429 26.5172C26.1843 26.8585 26.7377 26.8585 27.0791 26.5172L25.8429 25.281ZM28.8273 24.769C29.1686 24.4276 29.1686 23.8742 28.8273 23.5328C28.4859 23.1914 27.9325 23.1914 27.5911 23.5328L28.8273 24.769ZM30.5048 29.9429C30.1634 30.2842 30.1634 30.8377 30.5048 31.179C30.8461 31.5204 31.3996 31.5204 31.7409 31.179L30.5048 29.9429ZM33.4891 29.4308C33.8305 29.0895 33.8305 28.536 33.4891 28.1947C33.1478 27.8533 32.5943 27.8533 32.253 28.1947L33.4891 29.4308ZM27.0791 26.5172L28.8273 24.769L27.5911 23.5328L25.8429 25.281L27.0791 26.5172ZM31.7409 31.179L33.4891 29.4308L32.253 28.1947L30.5048 29.9429L31.7409 31.179Z" fill="white"/>
</svg>
