<svg width="350" height="90" viewBox="0 0 350 90" fill="none" xmlns="http://www.w3.org/2000/svg">
<g clip-path="url(#clip0_54_492)">
<g clip-path="url(#clip1_54_492)">
<path d="M203.589 12.8702L213.479 21.4087L214.232 20.5352L204.342 11.9979L203.589 12.8702ZM213.479 21.4087C222.142 28.8879 232.261 32.8848 242.621 32.8848V31.731C232.569 31.731 222.71 27.8541 214.232 20.5352L213.479 21.4087ZM140.662 17.1302C158.262 -1.67864 184.687 -3.44864 203.589 12.8702L204.342 11.9979C184.95 -4.74441 157.823 -2.8971 139.819 16.3421L140.662 17.1302ZM108.815 32.8848C121.058 32.8848 131.195 27.246 140.662 17.1302L139.819 16.3421C130.495 26.3056 120.642 31.731 108.815 31.731V32.8848ZM16.5897 32.8848H108.815V31.731H16.5897V32.8848ZM242.621 32.8848H332.743V31.731H242.621V32.8848Z" fill="url(#paint0_radial_54_492)"/>
<path d="M14.285 44.4231H335.054H14.285Z" fill="#6DB27A"/>
<path d="M14.285 44.4231H335.054" stroke="url(#paint1_radial_54_492)" stroke-width="1.15385"/>
<path d="M164.863 2.30762V36.923V2.30762Z" fill="#6DB27A"/>
<path d="M164.863 2.30762V36.923" stroke="url(#paint2_radial_54_492)" stroke-width="1.15385"/>
<path d="M183.324 2.30762V36.923V2.30762Z" fill="#6DB27A"/>
<path d="M183.324 2.30762V36.923" stroke="url(#paint3_radial_54_492)" stroke-width="1.15385"/>
<path d="M183.324 86.5381V71.5381V86.5381Z" fill="#6DB27A"/>
<path d="M183.324 86.5381V71.5381" stroke="url(#paint4_radial_54_492)" stroke-width="1.15385"/>
<path d="M164.863 86.5381V71.5381V86.5381Z" fill="#6DB27A"/>
<path d="M164.863 86.5381V71.5381" stroke="url(#paint5_radial_54_492)" stroke-width="1.15385"/>
<path d="M144.479 76.1077L144.072 76.5174L144.082 76.5289L144.479 76.1077ZM134.795 66.487L135.201 66.0774L135.184 66.06L135.165 66.045L134.795 66.487ZM209.354 70.1331L207.881 71.6608L208.71 72.4616L210.185 70.9339L209.354 70.1331ZM144.885 75.6993L135.201 66.0774L134.388 66.8966L144.072 76.5174L144.885 75.6993ZM135.165 66.045C126.447 58.717 116.307 54.8077 105.932 54.8077L105.93 55.9616C116.006 55.9616 125.89 59.7554 134.423 66.9277L135.165 66.045ZM207.881 71.6608C198.977 80.8916 188.485 86.8593 177.614 88.05C166.761 89.2385 155.456 85.6731 144.875 75.6889L144.082 76.5289C154.88 86.7174 166.513 90.4258 177.739 89.197C188.947 87.9693 199.675 81.8297 208.71 72.4616L207.881 71.6608ZM242.961 54.8077C230.747 54.8077 218.915 60.2227 209.354 70.1331L210.185 70.9339C219.56 61.2162 231.103 55.9616 242.961 55.9616V54.8077ZM335.054 54.8077H242.961V55.9616H335.054V54.8077ZM105.932 54.8077H14.285V55.9616H105.93L105.932 54.8077Z" fill="url(#paint6_radial_54_492)"/>
<mask id="mask0_54_492" style="mask-type:luminance" maskUnits="userSpaceOnUse" x="78" y="39" width="13" height="12">
<path d="M78.9022 39.2305H90.4406V50.7689H78.9022V39.2305Z" fill="white"/>
</mask>
<g mask="url(#mask0_54_492)">
<path d="M86.88 50.3295C87.5885 50.0456 88.2336 49.6239 88.7779 49.0889C89.3223 48.5539 89.7551 47.9162 90.0512 47.2127C90.3473 46.5092 90.5009 45.754 90.5031 44.9908C90.5053 44.2275 90.356 43.4714 90.0639 42.7663C89.7717 42.0611 89.3426 41.421 88.8013 40.8829C88.26 40.3448 87.6174 39.9194 86.9105 39.6314C86.2037 39.3435 85.4467 39.1986 84.6835 39.2053C83.9203 39.212 83.166 39.37 82.4642 39.6703C81.0682 40.2677 79.9639 41.3914 79.391 42.7977C78.8181 44.204 78.8227 45.7794 79.4039 47.1823C79.9851 48.5852 81.0959 49.7024 82.4955 50.2916C83.8951 50.8808 85.4705 50.8944 86.88 50.3295Z" fill="url(#paint7_radial_54_492)"/>
<path d="M90.0981 46.2799C90.2662 45.5679 90.2925 44.8297 90.1753 44.1076C90.0582 43.3854 89.7999 42.6934 89.4153 42.0711C89.0307 41.4487 88.5273 40.9082 87.9338 40.4804C87.3403 40.0526 86.6684 39.7459 85.9564 39.5778C85.2444 39.4097 84.5062 39.3835 83.7841 39.5006C83.0619 39.6178 82.3699 39.876 81.7475 40.2606C81.1252 40.6452 80.5847 41.1486 80.1569 41.7421C79.7291 42.3356 79.4224 43.0075 79.2543 43.7195C78.9149 45.1574 79.1606 46.6711 79.9373 47.9278C80.7141 49.1845 81.9582 50.0811 83.396 50.4205C84.8338 50.7599 86.3476 50.5142 87.6043 49.7374C88.8609 48.9607 89.7576 47.7166 90.097 46.2788L90.0981 46.2799Z" fill="url(#paint8_radial_54_492)"/>
<path d="M84.6731 49.3127C84.4313 49.3127 84.1995 49.2166 84.0285 49.0457C83.8576 48.8747 83.7615 48.6429 83.7615 48.4011V41.5969C83.7618 41.3554 83.858 41.1238 84.0289 40.9531C84.1998 40.7824 84.4315 40.6865 84.6731 40.6865C84.9144 40.6868 85.1458 40.7828 85.3165 40.9535C85.4871 41.1242 85.5832 41.3556 85.5835 41.5969V48.4023C85.5832 48.6438 85.487 48.8754 85.3161 49.0461C85.1452 49.2168 84.9146 49.3127 84.6731 49.3127Z" fill="url(#paint9_radial_54_492)"/>
<path d="M84.6731 49.211C84.4585 49.211 84.2526 49.1259 84.1007 48.9742C83.9489 48.8226 83.8634 48.6168 83.8631 48.4022V41.5968C83.871 41.3874 83.9597 41.1893 84.1107 41.0439C84.2616 40.8986 84.463 40.8174 84.6725 40.8174C84.8821 40.8174 85.0834 40.8986 85.2344 41.0439C85.3853 41.1893 85.474 41.3874 85.4819 41.5968V48.4022C85.4819 48.617 85.3966 48.8231 85.2447 48.975C85.0928 49.1269 84.8868 49.2122 84.6719 49.2122L84.6731 49.211Z" fill="url(#paint10_radial_54_492)"/>
</g>
<mask id="mask1_54_492" style="mask-type:luminance" maskUnits="userSpaceOnUse" x="257" y="39" width="13" height="12">
<path d="M257.746 39.2305H269.284V50.7689H257.746V39.2305Z" fill="white"/>
</mask>
<g mask="url(#mask1_54_492)">
<path d="M265.722 50.3292C266.422 50.0394 267.058 49.6145 267.593 49.0788C268.129 48.5432 268.554 47.9072 268.844 47.2073C269.134 46.5074 269.283 45.7572 269.283 44.9997C269.283 44.2421 269.133 43.492 268.843 42.7922C268.553 42.0924 268.128 41.4565 267.593 40.9209C267.057 40.3853 266.421 39.9604 265.721 39.6705C265.022 39.3807 264.271 39.2315 263.514 39.2314C262.756 39.2314 262.006 39.3806 261.307 39.6705C260.607 39.9604 259.971 40.3852 259.435 40.9208C258.9 41.4565 258.475 42.0923 258.185 42.7921C257.895 43.492 257.746 44.242 257.746 44.9995C257.746 45.757 257.895 46.507 258.185 47.2068C258.77 48.6202 259.893 49.7432 261.307 50.3287C262.72 50.9142 264.308 50.9144 265.722 50.3292Z" fill="url(#paint11_radial_54_492)"/>
<path d="M268.938 46.2792C269.108 45.5663 269.136 44.8268 269.02 44.1031C268.905 43.3793 268.647 42.6855 268.262 42.0615C267.878 41.4375 267.374 40.8955 266.78 40.4665C266.185 40.0376 265.512 39.7302 264.799 39.5619C264.085 39.3936 263.346 39.3678 262.622 39.4858C261.899 39.6039 261.206 39.8636 260.583 40.2499C259.96 40.6363 259.42 41.1418 258.993 41.7375C258.566 42.3331 258.26 43.0072 258.094 43.7211C257.76 45.1573 258.009 46.6674 258.786 47.9205C259.563 49.1735 260.806 50.0672 262.241 50.4058C263.676 50.7444 265.187 50.5001 266.442 49.7266C267.697 48.953 268.595 47.7133 268.938 46.2792Z" fill="url(#paint12_radial_54_492)"/>
<path d="M263.516 49.3128C263.274 49.3125 263.042 49.2163 262.872 49.0454C262.701 48.8745 262.605 48.6428 262.605 48.4012V41.597C262.617 41.3635 262.718 41.1434 262.887 40.9823C263.057 40.8212 263.282 40.7313 263.516 40.7313C263.749 40.7313 263.974 40.8212 264.144 40.9823C264.313 41.1434 264.414 41.3635 264.426 41.597V48.4024C264.426 48.6438 264.33 48.8751 264.159 49.0458C263.988 49.2165 263.757 49.3125 263.516 49.3128Z" fill="url(#paint13_radial_54_492)"/>
<path d="M263.516 49.211C263.301 49.2107 263.096 49.1254 262.944 48.9738C262.792 48.8222 262.707 48.6166 262.707 48.4022V41.5968C262.715 41.3874 262.803 41.1893 262.954 41.0439C263.105 40.8986 263.307 40.8174 263.516 40.8174C263.726 40.8174 263.927 40.8986 264.078 41.0439C264.229 41.1893 264.318 41.3874 264.326 41.5968V48.4022C264.326 48.617 264.24 48.8231 264.088 48.975C263.936 49.1269 263.73 49.211 263.516 49.211Z" fill="url(#paint14_radial_54_492)"/>
</g>
<g filter="url(#filter0_f_54_492)">
<rect x="-53.9963" y="13" width="128" height="64" fill="#FCFAFE"/>
</g>
<g filter="url(#filter1_f_54_492)">
<rect x="288.004" y="13" width="128" height="64" fill="#FCFAFE"/>
</g>
</g>
</g>
<rect x="141.66" y="12" width="66" height="66" rx="33" fill="url(#paint15_radial_54_492)"/>
<rect x="143.66" y="14" width="62" height="62" rx="31" fill="url(#paint16_linear_54_492)"/>
<path d="M183.915 34.8711C183.573 35.2124 183.573 35.7659 183.915 36.1072C184.256 36.4486 184.81 36.4486 185.151 36.1072L183.915 34.8711ZM187.482 33.7763C187.823 33.4349 187.823 32.8815 187.482 32.5401C187.141 32.1988 186.587 32.1988 186.246 32.5401L187.482 33.7763ZM186.246 32.5401L183.915 34.8711L185.151 36.1072L187.482 33.7763L186.246 32.5401Z" fill="white"/>
<path d="M183.946 44.5353L183.328 43.9172V43.9172L183.946 44.5353ZM180.563 45.3812L181.181 44.7632L180.563 45.3812ZM183.1 45.3812L183.718 45.9993L183.718 45.9993L183.1 45.3812ZM174.641 36.9216L174.023 36.3035H174.023L174.641 36.9216ZM174.641 39.4595L174.023 40.0776L174.641 39.4595ZM175.487 36.0757L176.105 36.6937L175.487 36.0757ZM174.869 35.4576L174.023 36.3035L175.259 37.5397L176.105 36.6937L174.869 35.4576ZM174.023 40.0776L179.944 45.9993L181.181 44.7632L175.259 38.8414L174.023 40.0776ZM183.718 45.9993L184.564 45.1534L183.328 43.9172L182.482 44.7632L183.718 45.9993ZM184.564 45.1534C187.242 42.4759 187.242 38.135 184.564 35.4576L183.328 36.6937C185.323 38.6884 185.323 41.9225 183.328 43.9172L184.564 45.1534ZM176.105 36.6937C178.1 34.699 181.334 34.699 183.328 36.6937L184.564 35.4576C181.887 32.7802 177.546 32.7802 174.869 35.4576L176.105 36.6937ZM175.259 38.8414C174.991 38.5739 174.92 38.3506 174.918 38.1967C174.916 38.0487 174.975 37.8233 175.259 37.5397L174.023 36.3035C173.486 36.8407 173.16 37.4988 173.17 38.2218C173.18 38.9389 173.519 39.5742 174.023 40.0776L175.259 38.8414ZM182.482 44.7632C182.215 45.0306 181.991 45.1019 181.838 45.1041C181.69 45.1062 181.464 45.0467 181.181 44.7632L179.944 45.9993C180.482 46.5365 181.14 46.8625 181.863 46.8521C182.58 46.8419 183.215 46.5027 183.718 45.9993L182.482 44.7632Z" fill="white"/>
<path d="M166.504 54.7547C166.845 54.4133 166.845 53.8599 166.504 53.5185C166.162 53.1772 165.609 53.1772 165.267 53.5185L166.504 54.7547ZM162.936 55.8494C162.595 56.1908 162.595 56.7442 162.936 57.0856C163.278 57.427 163.831 57.427 164.173 57.0856L162.936 55.8494ZM165.267 53.5185L162.936 55.8494L164.173 57.0856L166.504 54.7547L165.267 53.5185Z" fill="white"/>
<path d="M175.778 50.1661L175.16 50.7842L175.778 50.1661ZM167.318 44.2444L166.7 43.6263L166.7 43.6263L167.318 44.2444ZM169.856 44.2444L170.474 43.6263L169.856 44.2444ZM166.472 45.0903L167.09 45.7084L167.09 45.7084L166.472 45.0903ZM167.09 45.7084L167.936 44.8624L166.7 43.6263L165.854 44.4722L167.09 45.7084ZM169.238 44.8624L175.16 50.7842L176.396 49.548L170.474 43.6263L169.238 44.8624ZM175.16 52.0859L174.314 52.9319L175.55 54.168L176.396 53.3221L175.16 52.0859ZM174.314 52.9319C172.319 54.9266 169.085 54.9266 167.09 52.9319L165.854 54.168C168.531 56.8454 172.872 56.8454 175.55 54.168L174.314 52.9319ZM165.854 44.4722C163.177 47.1497 163.177 51.4906 165.854 54.168L167.09 52.9319C165.095 50.9372 165.095 47.7031 167.09 45.7084L165.854 44.4722ZM170.474 43.6263C169.971 43.1229 169.335 42.7837 168.618 42.7735C167.895 42.7631 167.237 43.0891 166.7 43.6263L167.936 44.8624C168.22 44.5789 168.445 44.5194 168.593 44.5215C168.747 44.5237 168.97 44.595 169.238 44.8624L170.474 43.6263ZM176.396 53.3221C176.899 52.8186 177.238 52.1834 177.249 51.4662C177.259 50.7432 176.933 50.0852 176.396 49.548L175.16 50.7842C175.443 51.0677 175.503 51.2932 175.501 51.4412C175.498 51.5951 175.427 51.8184 175.16 52.0859L176.396 53.3221Z" fill="white"/>
<path d="M172.843 41.2811C172.502 41.6225 172.502 42.1759 172.843 42.5173C173.184 42.8586 173.738 42.8586 174.079 42.5173L172.843 41.2811ZM175.827 40.7691C176.169 40.4277 176.169 39.8743 175.827 39.5329C175.486 39.1916 174.932 39.1916 174.591 39.5329L175.827 40.7691ZM177.505 45.943C177.163 46.2843 177.163 46.8378 177.505 47.1791C177.846 47.5205 178.4 47.5205 178.741 47.1791L177.505 45.943ZM180.489 45.4309C180.83 45.0896 180.83 44.5361 180.489 44.1948C180.148 43.8534 179.594 43.8534 179.253 44.1948L180.489 45.4309ZM174.079 42.5173L175.827 40.7691L174.591 39.5329L172.843 41.2811L174.079 42.5173ZM178.741 47.1791L180.489 45.4309L179.253 44.1948L177.505 45.943L178.741 47.1791Z" fill="white"/>
<defs>
<filter id="filter0_f_54_492" x="-83.8963" y="-16.9" width="187.8" height="123.8" filterUnits="userSpaceOnUse" color-interpolation-filters="sRGB">
<feFlood flood-opacity="0" result="BackgroundImageFix"/>
<feBlend mode="normal" in="SourceGraphic" in2="BackgroundImageFix" result="shape"/>
<feGaussianBlur stdDeviation="14.95" result="effect1_foregroundBlur_54_492"/>
</filter>
<filter id="filter1_f_54_492" x="258.104" y="-16.9" width="187.8" height="123.8" filterUnits="userSpaceOnUse" color-interpolation-filters="sRGB">
<feFlood flood-opacity="0" result="BackgroundImageFix"/>
<feBlend mode="normal" in="SourceGraphic" in2="BackgroundImageFix" result="shape"/>
<feGaussianBlur stdDeviation="14.95" result="effect1_foregroundBlur_54_492"/>
</filter>
<radialGradient id="paint0_radial_54_492" cx="0" cy="0" r="1" gradientUnits="userSpaceOnUse" gradientTransform="translate(174.667 16.7308) scale(158.077 83.6809)">
<stop stop-color="#BFDCC4"/>
<stop offset="1" stop-color="#469E57"/>
</radialGradient>
<radialGradient id="paint1_radial_54_492" cx="0" cy="0" r="1" gradientUnits="userSpaceOnUse" gradientTransform="translate(-nan -nan) rotate(-nan) scale(-nan -nan)">
<stop stop-color="#70B47B"/>
<stop offset="1" stop-color="#5EAB6C" stop-opacity="0.56"/>
</radialGradient>
<radialGradient id="paint2_radial_54_492" cx="0" cy="0" r="1" gradientUnits="userSpaceOnUse" gradientTransform="translate(-nan -nan) rotate(-nan) scale(-nan -nan)">
<stop stop-color="#70B47B"/>
<stop offset="1" stop-color="#5EAB6C" stop-opacity="0.56"/>
</radialGradient>
<radialGradient id="paint3_radial_54_492" cx="0" cy="0" r="1" gradientUnits="userSpaceOnUse" gradientTransform="translate(-nan -nan) rotate(-nan) scale(-nan -nan)">
<stop stop-color="#70B47B"/>
<stop offset="1" stop-color="#5EAB6C" stop-opacity="0.56"/>
</radialGradient>
<radialGradient id="paint4_radial_54_492" cx="0" cy="0" r="1" gradientUnits="userSpaceOnUse" gradientTransform="translate(-nan -nan) rotate(-nan) scale(-nan -nan)">
<stop stop-color="#70B47B"/>
<stop offset="1" stop-color="#5EAB6C" stop-opacity="0.56"/>
</radialGradient>
<radialGradient id="paint5_radial_54_492" cx="0" cy="0" r="1" gradientUnits="userSpaceOnUse" gradientTransform="translate(-nan -nan) rotate(-nan) scale(-nan -nan)">
<stop stop-color="#70B47B"/>
<stop offset="1" stop-color="#5EAB6C" stop-opacity="0.56"/>
</radialGradient>
<radialGradient id="paint6_radial_54_492" cx="0" cy="0" r="1" gradientUnits="userSpaceOnUse" gradientTransform="translate(174.67 72.1154) scale(160.385 89.6589)">
<stop stop-color="#BFDCC4"/>
<stop offset="1" stop-color="#469E57"/>
</radialGradient>
<radialGradient id="paint7_radial_54_492" cx="0" cy="0" r="1" gradientUnits="userSpaceOnUse" gradientTransform="translate(84.7339 44.9743) scale(5.76923 29.8861)">
<stop stop-color="#BFDCC4"/>
<stop offset="1" stop-color="#469E57"/>
</radialGradient>
<radialGradient id="paint8_radial_54_492" cx="0" cy="0" r="1" gradientUnits="userSpaceOnUse" gradientTransform="translate(84.6762 44.999) scale(5.57096 28.856)">
<stop stop-color="#BFDCC4"/>
<stop offset="1" stop-color="#469E57"/>
</radialGradient>
<radialGradient id="paint9_radial_54_492" cx="0" cy="0" r="1" gradientUnits="userSpaceOnUse" gradientTransform="translate(84.6725 44.9996) scale(0.910963 22.3428)">
<stop stop-color="#BFDCC4"/>
<stop offset="1" stop-color="#469E57"/>
</radialGradient>
<radialGradient id="paint10_radial_54_492" cx="0" cy="0" r="1" gradientUnits="userSpaceOnUse" gradientTransform="translate(84.6725 45.0148) scale(0.809423 21.7436)">
<stop stop-color="#BFDCC4"/>
<stop offset="1" stop-color="#469E57"/>
</radialGradient>
<radialGradient id="paint11_radial_54_492" cx="0" cy="0" r="1" gradientUnits="userSpaceOnUse" gradientTransform="translate(263.514 44.9997) scale(5.76841 29.881)">
<stop stop-color="#BFDCC4"/>
<stop offset="1" stop-color="#469E57"/>
</radialGradient>
<radialGradient id="paint12_radial_54_492" cx="0" cy="0" r="1" gradientUnits="userSpaceOnUse" gradientTransform="translate(263.52 44.9838) scale(5.57078 28.858)">
<stop stop-color="#BFDCC4"/>
<stop offset="1" stop-color="#469E57"/>
</radialGradient>
<radialGradient id="paint13_radial_54_492" cx="0" cy="0" r="1" gradientUnits="userSpaceOnUse" gradientTransform="translate(263.516 45.022) scale(0.910386 22.227)">
<stop stop-color="#BFDCC4"/>
<stop offset="1" stop-color="#469E57"/>
</radialGradient>
<radialGradient id="paint14_radial_54_492" cx="0" cy="0" r="1" gradientUnits="userSpaceOnUse" gradientTransform="translate(263.516 45.0148) scale(0.809423 21.7436)">
<stop stop-color="#BFDCC4"/>
<stop offset="1" stop-color="#469E57"/>
</radialGradient>
<radialGradient id="paint15_radial_54_492" cx="0" cy="0" r="1" gradientUnits="userSpaceOnUse" gradientTransform="translate(174.66 44.9997) scale(33 170.948)">
<stop stop-color="#BFDCC4"/>
<stop offset="1" stop-color="#469E57"/>
</radialGradient>
<linearGradient id="paint16_linear_54_492" x1="174.66" y1="14" x2="216.233" y2="24.4787" gradientUnits="userSpaceOnUse">
<stop stop-color="#70B47B"/>
<stop offset="1" stop-color="#37964B"/>
</linearGradient>
<clipPath id="clip0_54_492">
<rect width="349.33" height="90" fill="white" transform="translate(0.00372314)"/>
</clipPath>
<clipPath id="clip1_54_492">
<rect width="320.769" height="90" fill="white" transform="translate(14.285)"/>
</clipPath>
</defs>
</svg>
