<svg width="30" height="27" viewBox="0 0 30 27" fill="none" xmlns="http://www.w3.org/2000/svg">
<mask id="mask0_54_845" style="mask-type:luminance" maskUnits="userSpaceOnUse" x="0" y="0" width="30" height="27">
<path d="M0.39061 0.256836H29.0196V26.9238H0.39061V0.256836Z" fill="white"/>
</mask>
<g mask="url(#mask0_54_845)">
<path fill-rule="evenodd" clip-rule="evenodd" d="M6.65096 11.7908C6.00096 8.18385 8.72896 5.31185 12.101 5.48085C14.467 5.60085 16.881 7.28885 16.906 10.2848C16.92 12.4068 15.516 14.3349 13.966 14.9459C12.996 15.3259 11.634 15.0958 11.6 13.9408C11.571 12.8928 12.606 12.7958 13.394 12.2188C16.223 10.1558 14.034 5.38885 10.094 6.41285C8.08396 6.93785 6.55996 8.98685 6.65596 11.7908H6.65096Z" fill="#72758D"/>
<path fill-rule="evenodd" clip-rule="evenodd" d="M0.658615 17.7269C-1.14538 7.75089 6.40662 -0.195109 15.7286 0.275891C22.2746 0.607891 28.9556 5.27789 29.0186 13.5609C29.0616 19.4389 25.1756 24.7729 20.8846 26.4519C18.2056 27.5009 14.4346 26.8709 14.3436 23.6769C14.2566 20.7709 17.1186 20.5069 19.3026 18.9189C27.1226 13.2049 21.0776 0.0158908 10.1726 2.85389C4.61262 4.30189 0.394615 9.96789 0.658615 17.7269Z" fill="#66697F"/>
<path fill-rule="evenodd" clip-rule="evenodd" d="M4.28199 14.1096C3.16699 7.89964 7.86099 2.95364 13.667 3.24264C17.741 3.44864 21.901 6.35464 21.94 11.5156C21.969 15.1706 19.55 18.4956 16.88 19.5386C15.21 20.1926 12.863 19.7986 12.806 17.8116C12.753 16.0036 14.537 15.8396 15.894 14.8486C20.761 11.2886 17 3.08364 10.213 4.84864C6.74999 5.74864 4.12299 9.27364 4.28699 14.1086H4.28199V14.1096Z" fill="#5B5E71"/>
</g>
</svg>
