<svg width="29" height="27" viewBox="0 0 29 27" fill="none" xmlns="http://www.w3.org/2000/svg">
<mask id="mask0_54_909" style="mask-type:luminance" maskUnits="userSpaceOnUse" x="0" y="0" width="29" height="27">
<path d="M0.171875 0.256836H28.1089V26.9238H0.171875V0.256836Z" fill="white"/>
</mask>
<g mask="url(#mask0_54_909)">
<path d="M18.9674 26.6927C18.9674 26.8267 18.8474 26.9227 18.7134 26.9227H15.2884C15.1717 26.9227 15.0561 26.8997 14.9482 26.855C14.8403 26.8103 14.7423 26.7448 14.6598 26.6623C14.5772 26.5797 14.5117 26.4817 14.4671 26.3739C14.4224 26.266 14.3994 26.1504 14.3994 26.0337V14.4647C14.3994 14.2667 14.6064 14.1347 14.7824 14.2287C16.0824 14.9787 17.3834 15.7357 18.6844 16.4787C18.8604 16.5777 18.9744 16.6687 18.9744 16.9067C18.9674 20.1667 18.9674 23.4267 18.9674 26.6927ZM13.8794 11.6237C13.8792 11.7797 13.8379 11.9329 13.7598 12.068C13.6817 12.203 13.5694 12.3151 13.4343 12.3931C13.2992 12.4711 13.1459 12.5122 12.9899 12.5123C12.8339 12.5124 12.6806 12.4715 12.5454 12.3937C11.5034 11.7917 10.4804 11.2007 9.4644 10.6097C9.42212 10.5782 9.38717 10.538 9.36196 10.4917C9.33675 10.4454 9.32189 10.3942 9.3184 10.3417C9.3184 7.00567 9.3184 3.66867 9.3264 0.332672C9.3264 0.289672 9.3794 0.263672 9.4224 0.263672H12.9904C13.2263 0.263937 13.4524 0.357822 13.6191 0.5247C13.7858 0.691579 13.8794 0.917803 13.8794 1.15367V11.6237ZM15.7104 12.4017C15.5752 12.4798 15.4218 12.5209 15.2656 12.5209C15.1094 12.5209 14.956 12.4799 14.8207 12.4019C14.6855 12.3238 14.5731 12.2116 14.4949 12.0764C14.4168 11.9412 14.3755 11.7878 14.3754 11.6317C14.3754 10.4377 14.3754 9.27367 14.3924 8.11467C14.3924 7.97667 14.5524 7.78467 14.6904 7.70067C17.2004 6.23967 19.7174 4.79367 22.2274 3.33967L22.5324 3.16267C22.6321 3.10482 22.7422 3.06723 22.8564 3.05206C22.9707 3.03689 23.0868 3.04443 23.1981 3.07426C23.3094 3.10408 23.4137 3.15561 23.5051 3.22587C23.5964 3.29612 23.673 3.38374 23.7304 3.48367L25.1414 5.92867C25.2596 6.1329 25.2919 6.37573 25.2312 6.60376C25.1704 6.83179 25.0216 7.02636 24.8174 7.14467C21.7884 8.89667 18.7674 10.6367 15.7104 12.4017ZM5.0874 24.3927C5.0558 24.4026 5.02178 24.4019 4.99067 24.3905C4.95955 24.3791 4.93308 24.3577 4.9154 24.3297L3.1364 21.2497C3.01869 21.0454 2.9869 20.8028 3.04804 20.5752C3.10917 20.3475 3.25822 20.1535 3.4624 20.0357C6.7294 18.1497 9.9894 16.2677 13.2924 14.3587C13.3542 14.3231 13.4243 14.3044 13.4956 14.3044C13.567 14.3045 13.637 14.3233 13.6988 14.3589C13.7606 14.3946 13.8119 14.4458 13.8477 14.5076C13.8834 14.5693 13.9023 14.6393 13.9024 14.7107C13.9024 16.1407 13.9104 17.5647 13.8944 18.9957C13.8944 19.1407 13.8034 19.3557 13.6884 19.4157C10.8304 21.0817 7.9654 22.7327 5.1074 24.3827C5.0994 24.3877 5.0964 24.3897 5.0874 24.3927ZM15.9554 14.3617C15.8204 14.2836 15.7082 14.1715 15.6302 14.0364C15.5521 13.9014 15.5109 13.7482 15.5107 13.5922C15.5105 13.4363 15.5513 13.283 15.629 13.1478C15.7067 13.0125 15.8186 12.9001 15.9534 12.8217C16.5474 12.4757 17.1304 12.1387 17.7134 11.8027C18.0424 11.6117 18.3934 11.4507 18.7004 11.2207C19.0604 10.9537 19.3504 11.0067 19.7254 11.2207C22.4184 12.7977 25.1194 14.3507 27.8214 15.9117C27.8995 15.9612 27.9555 16.039 27.9776 16.1288C27.9998 16.2186 27.9865 16.3135 27.9404 16.3937L26.2674 19.2897C26.1493 19.4935 25.9551 19.6421 25.7276 19.7031C25.5 19.764 25.2576 19.7322 25.0534 19.6147C22.0254 17.8677 19.0104 16.1237 15.9554 14.3617ZM12.3274 12.8237C12.4621 12.902 12.5739 13.0142 12.6516 13.1493C12.7293 13.2843 12.7702 13.4374 12.7702 13.5932C12.7702 13.749 12.7293 13.902 12.6516 14.0371C12.5739 14.1721 12.4621 14.2844 12.3274 14.3627C11.297 14.9607 10.2636 15.5537 9.2274 16.1417C9.17206 16.1637 9.11267 16.1736 9.05317 16.1709C8.99368 16.1681 8.93547 16.1527 8.8824 16.1257C6.0124 14.4807 3.1434 12.8207 0.2824 11.1597C0.2044 11.1217 0.2044 11.0087 0.2484 10.9337L2.0094 7.88367C2.06781 7.78239 2.14562 7.69362 2.23838 7.62245C2.33114 7.55128 2.43703 7.49911 2.54998 7.46892C2.66293 7.43873 2.78073 7.43112 2.89663 7.44652C3.01253 7.46192 3.12425 7.50003 3.2254 7.55867C6.2594 9.31667 9.2764 11.0587 12.3274 12.8237Z" fill="#5B5E71"/>
</g>
</svg>
