<svg width="28" height="27" viewBox="0 0 28 27" fill="none" xmlns="http://www.w3.org/2000/svg">
<mask id="mask0_54_833" style="mask-type:luminance" maskUnits="userSpaceOnUse" x="0" y="0" width="28" height="27">
<path d="M0.390625 0.256836H27.0576V26.9238H0.390625V0.256836Z" fill="white"/>
</mask>
<g mask="url(#mask0_54_833)">
<path d="M25.2515 13.5886C23.8474 11.1806 21.7268 9.27082 19.1855 8.1256C18.2825 7.71957 17.3365 7.41698 16.3655 7.2236L16.3705 7.2266C16.3715 7.2266 16.3715 7.2286 16.3735 7.2286C16.4605 7.2866 16.5475 7.3456 16.6325 7.4066C16.7045 7.4566 16.7775 7.5106 16.8505 7.5636C16.9675 7.6486 17.0805 7.7366 17.1965 7.8276C17.2045 7.8316 17.2125 7.8396 17.2205 7.8446L17.4065 7.9936L17.4385 8.0206L17.4485 8.0276C18.0431 8.51483 18.5936 9.05359 19.0935 9.6376C19.1605 9.7146 19.2245 9.7926 19.2895 9.8696C19.2985 9.8796 19.3065 9.8916 19.3155 9.9006C19.3924 9.99164 19.4662 10.0854 19.5365 10.1816C19.599 10.258 19.659 10.3363 19.7165 10.4166C19.7725 10.4926 19.8255 10.5666 19.8785 10.6426C19.8925 10.6646 19.9085 10.6856 19.9225 10.7056C19.9255 10.7086 19.9275 10.7156 19.9325 10.7176L20.0815 10.9396L20.0855 10.9476L20.1175 11.1086L20.0875 10.9506C20.2244 11.1594 20.3567 11.3711 20.4845 11.5856C20.5365 11.6736 20.5865 11.7596 20.6335 11.8486L20.6485 11.8756C20.6835 11.9366 20.7145 11.9956 20.7465 12.0576C20.7965 12.1486 20.8415 12.2396 20.8885 12.3316C20.9405 12.4356 20.9925 12.5376 21.0395 12.6416C21.0505 12.6646 21.0615 12.6846 21.0705 12.7086C21.1085 12.7906 21.1465 12.8716 21.1825 12.9566C22.3964 15.7225 22.6378 18.8179 21.8675 21.7386C21.3726 23.6226 20.4681 25.3743 19.2185 26.8686C21.4986 27.0784 23.7942 26.6964 25.8835 25.7596C26.8235 23.6698 27.2069 21.3724 26.9965 19.0906C26.8244 17.1505 26.2258 15.2724 25.2435 13.5906L25.2515 13.5886ZM2.20049 13.5896C3.67297 16.1131 5.9304 18.0857 8.62849 19.2066C8.63549 19.2106 8.64049 19.2116 8.64649 19.2166C8.72649 19.2476 8.80549 19.2806 8.88549 19.3126L8.90049 19.3166C9.00749 19.3576 9.11249 19.3986 9.21949 19.4366C9.27649 19.4576 9.33649 19.4786 9.39549 19.4966C9.47349 19.5256 9.55149 19.5506 9.63049 19.5766C9.64049 19.5806 9.65249 19.5856 9.66149 19.5866C9.75849 19.6186 9.85949 19.6496 9.95849 19.6776L10.0305 19.6996C10.1375 19.7296 10.2415 19.7606 10.3505 19.7876L10.5285 19.8326L10.7125 19.8756C10.8325 19.9036 10.9555 19.9286 11.0785 19.9536C9.60437 18.9714 8.33993 17.7062 7.35849 16.2316C6.80658 15.406 6.35032 14.5203 5.99849 13.5916C5.01082 10.9853 4.86222 8.13549 5.57349 5.4406C6.06705 3.55585 6.97207 1.80386 8.22349 0.3106C5.9437 0.0989603 3.64799 0.482095 1.56049 1.4226C0.618875 3.51155 0.235381 5.80907 0.447492 8.0906C0.625492 10.0806 1.24349 11.9466 2.19849 13.5906L2.20049 13.5896Z" fill="#5B5E71"/>
<path d="M9.0367 8.90388C9.66085 8.27831 10.3455 7.71622 11.0807 7.22588C11.9064 6.67432 12.792 6.21839 13.7207 5.86688C16.3271 4.8796 19.1766 4.73067 21.8717 5.44088C23.756 5.93558 25.5078 6.84048 27.0017 8.09088C27.0387 7.69288 27.0557 7.29088 27.0557 6.88388C27.0557 4.93688 26.6387 3.08588 25.8877 1.41988C23.7984 0.48304 21.5028 0.101065 19.2227 0.310883C17.2821 0.481108 15.4035 1.0802 13.7227 2.06488C11.3138 3.46723 9.40339 5.5874 8.2587 8.12888C7.8577 9.02288 7.5497 9.96888 7.3537 10.9559C7.84454 10.2178 8.40765 9.5304 9.0347 8.90388H9.0367ZM19.4877 18.3099C19.5237 18.2199 19.5567 18.1269 19.5917 18.0339C19.5933 18.0248 19.5964 18.016 19.6007 18.0079L19.6147 17.9639C19.6457 17.8789 19.6757 17.7939 19.7027 17.7079C19.7367 17.6059 19.7687 17.5039 19.7977 17.3989C19.8157 17.3439 19.8327 17.2889 19.8477 17.2339C19.8497 17.2219 19.8547 17.2089 19.8577 17.1949C19.9114 17.0048 19.9604 16.8134 20.0047 16.6209L20.0157 16.5769C20.0427 16.4631 20.067 16.3488 20.0887 16.2339L20.0857 16.2379C20.0857 16.2399 20.0837 16.2399 20.0837 16.2409C20.0757 16.2509 20.0707 16.2609 20.0647 16.2699C20.0132 16.3478 19.9598 16.4245 19.9047 16.4999C19.8437 16.5899 19.7807 16.6759 19.7177 16.7619L19.7077 16.7749C19.6537 16.8449 19.6017 16.9169 19.5487 16.9869C19.4857 17.0649 19.4267 17.1419 19.3637 17.2189C19.3217 17.2719 19.2757 17.3249 19.2317 17.3769C19.2307 17.3799 19.2277 17.3819 19.2237 17.3869L19.2087 17.4039C18.7411 17.9645 18.2273 18.485 17.6727 18.9599C17.6347 18.9909 17.6007 19.0239 17.5617 19.0539L17.4497 19.1479C17.4467 19.1499 17.4457 19.1529 17.4407 19.1559L17.4097 19.1819L17.2227 19.3319C17.2147 19.3359 17.2067 19.3439 17.1987 19.3489L17.0267 19.4819C16.8234 19.6369 16.6157 19.786 16.4037 19.9289C16.3937 19.9369 16.3847 19.9419 16.3757 19.9479L16.3727 19.9489L16.3677 19.9529L16.3577 19.9599C16.2707 20.0169 16.1827 20.0749 16.0937 20.1309C16.0617 20.1529 16.0277 20.1719 15.9937 20.1939C15.9807 20.2039 15.9677 20.2099 15.9537 20.2189C15.8977 20.2549 15.8377 20.2889 15.7797 20.3229C15.7547 20.3399 15.7277 20.3539 15.7027 20.3679C15.6037 20.4259 15.5047 20.4839 15.4067 20.5379C15.3187 20.5879 15.2307 20.6329 15.1417 20.6799C15.1301 20.6872 15.1177 20.6933 15.1047 20.6979C15.0411 20.7324 14.9764 20.7647 14.9107 20.7949C14.9027 20.7999 14.8947 20.8049 14.8867 20.8069C14.6569 20.9311 14.4191 21.0396 14.1747 21.1319C14.1057 21.1599 14.0367 21.1899 13.9667 21.2199C13.9647 21.2199 13.9617 21.2199 13.9587 21.2219C11.2921 22.2896 8.35284 22.4719 5.5747 21.7419C3.69132 21.245 1.94072 20.3388 0.447697 19.0879C0.235198 21.37 0.618343 23.6682 1.5597 25.7579C3.64855 26.6975 5.94497 27.0805 8.2257 26.8699C10.1657 26.6969 12.0437 26.098 13.7257 25.1159C16.251 23.6438 18.2248 21.3854 19.3457 18.6859C19.3974 18.5616 19.4464 18.4362 19.4927 18.3099H19.4877Z" fill="#5B5E71"/>
</g>
</svg>
