<svg width="47" height="35" viewBox="0 0 47 35" fill="none" xmlns="http://www.w3.org/2000/svg">
<g clip-path="url(#clip0_54_944)">
<g clip-path="url(#clip1_54_944)">
<g clip-path="url(#clip2_54_944)">
<mask id="mask0_54_944" style="mask-type:luminance" maskUnits="userSpaceOnUse" x="0" y="0" width="46" height="35">
<path d="M0.945312 0.179688H45.4693V34.1797H0.945312V0.179688Z" fill="white"/>
</mask>
<g mask="url(#mask0_54_944)">
<path d="M12.4336 0.694687C12.4246 0.422687 12.2056 0.179688 11.9336 0.179688H1.94558C1.39358 0.179688 0.942578 0.629687 0.978578 1.17969C1.48958 9.06069 7.99858 15.2997 15.9606 15.2997H26.9306C26.9366 15.2997 26.9406 15.2977 26.9406 15.2917C26.9406 15.2847 26.9366 15.2777 26.9306 15.2777C19.0446 15.0097 12.6936 8.63969 12.4336 0.694687Z" fill="url(#paint0_linear_54_944)"/>
<path d="M26.9379 19.0857C26.9378 19.0857 26.9377 19.0855 26.9378 19.0854L26.9403 19.0816C26.9406 19.0813 26.9407 19.0809 26.9408 19.0806L26.9413 19.0772C26.9415 19.0762 26.9416 19.0752 26.9415 19.0742C26.9412 19.0705 26.9395 19.067 26.9369 19.0644C26.9339 19.0614 26.9298 19.0597 26.9256 19.0597H15.9606C7.99858 19.0597 1.48958 25.2917 0.978578 33.1797C0.942578 33.7297 1.39358 34.1797 1.94558 34.1797H11.9266C12.1986 34.1797 12.4176 33.9367 12.4266 33.6647C12.6936 25.7247 19.0406 19.3527 26.9286 19.0897L26.9337 19.0888C26.9339 19.0888 26.9341 19.0887 26.9343 19.0886L26.9381 19.086C26.9382 19.0859 26.9381 19.0857 26.9379 19.0857Z" fill="url(#paint1_linear_54_944)"/>
<path d="M30.9606 0.205322C30.9606 0.205478 30.9605 0.20557 30.9603 0.205483L30.9565 0.202922C30.9562 0.202712 30.9559 0.202571 30.9555 0.202509L30.9522 0.201942C30.9511 0.201773 30.9501 0.201688 30.9491 0.201687C30.7846 0.201551 30.6251 0.179688 30.4656 0.179688H20.4856C19.9326 0.179688 19.4816 0.629687 19.5176 1.17969C20.0276 9.06069 26.5376 15.2997 34.4996 15.2997H45.4696C45.4756 15.2997 45.4796 15.2977 45.4796 15.2917C45.4796 15.2847 45.4756 15.2777 45.4696 15.2777C37.4231 15.0057 30.9754 8.37852 30.9646 0.216222C30.9646 0.215206 30.9646 0.214184 30.9644 0.213183L30.9638 0.209592C30.9637 0.209369 30.9637 0.209157 30.9635 0.20897L30.961 0.205213C30.9609 0.205055 30.9606 0.20513 30.9606 0.205322Z" fill="url(#paint2_linear_54_944)"/>
<path d="M45.4698 19.0856C45.471 19.0842 45.4719 19.0826 45.4724 19.0809C45.4729 19.0792 45.473 19.0774 45.4728 19.0756C45.4728 19.0715 45.4713 19.0676 45.4685 19.0646C45.4657 19.0616 45.4619 19.0598 45.4578 19.0596H34.4928C26.5368 19.0596 20.0218 25.2916 19.5098 33.1796C19.4738 33.7296 19.9258 34.1796 20.4778 34.1796H30.4578C30.7298 34.1796 30.9488 33.9366 30.9578 33.6646C31.2248 25.7246 37.5718 19.3526 45.4608 19.0896C45.4642 19.0895 45.4675 19.088 45.4698 19.0856Z" fill="url(#paint3_linear_54_944)"/>
</g>
</g>
</g>
</g>
<defs>
<linearGradient id="paint0_linear_54_944" x1="13.9586" y1="0.179687" x2="29.5527" y2="6.92936" gradientUnits="userSpaceOnUse">
<stop stop-color="#70B47B" stop-opacity="0.15"/>
<stop offset="1" stop-color="#37964B" stop-opacity="0.09"/>
</linearGradient>
<linearGradient id="paint1_linear_54_944" x1="13.9591" y1="19.0597" x2="29.5536" y2="25.8098" gradientUnits="userSpaceOnUse">
<stop stop-color="#70B47B" stop-opacity="0.15"/>
<stop offset="1" stop-color="#37964B" stop-opacity="0.09"/>
</linearGradient>
<linearGradient id="paint2_linear_54_944" x1="32.4976" y1="0.179687" x2="48.0918" y2="6.92936" gradientUnits="userSpaceOnUse">
<stop stop-color="#70B47B" stop-opacity="0.15"/>
<stop offset="1" stop-color="#37964B" stop-opacity="0.09"/>
</linearGradient>
<linearGradient id="paint3_linear_54_944" x1="32.4904" y1="19.0596" x2="48.0849" y2="25.8097" gradientUnits="userSpaceOnUse">
<stop stop-color="#70B47B" stop-opacity="0.15"/>
<stop offset="1" stop-color="#37964B" stop-opacity="0.09"/>
</linearGradient>
<clipPath id="clip0_54_944">
<rect width="46" height="34" fill="white" transform="translate(0.421875 0.179688)"/>
</clipPath>
<clipPath id="clip1_54_944">
<rect width="46" height="34" fill="white" transform="translate(0.421875 0.179688)"/>
</clipPath>
<clipPath id="clip2_54_944">
<rect width="46" height="34" fill="white" transform="translate(0.421875 0.179688)"/>
</clipPath>
</defs>
</svg>
