<svg width="19" height="18" viewBox="0 0 19 18" fill="none" xmlns="http://www.w3.org/2000/svg">
<g opacity="0.6">
<path d="M9.58722 11.8424C10.341 11.8424 11.0639 11.543 11.5969 11.01C12.1299 10.477 12.4293 9.75408 12.4293 9.00031C12.4293 8.24654 12.1299 7.52363 11.5969 6.99064C11.0639 6.45764 10.341 6.1582 9.58722 6.1582C8.83345 6.1582 8.11055 6.45764 7.57755 6.99064C7.04455 7.52363 6.74512 8.24654 6.74512 9.00031C6.74512 9.75408 7.04455 10.477 7.57755 11.01C8.11055 11.543 8.83345 11.8424 9.58722 11.8424Z" stroke="black" stroke-opacity="0.99" stroke-width="0.947368"/>
<path d="M13.4951 5.09989L13.5027 5.09136M3.19345 13.8157V4.18473C3.19345 3.31315 3.90019 2.60547 4.77177 2.60547H14.4037C15.2752 2.60547 15.982 3.31221 15.982 4.18473V13.8157C15.982 14.6873 15.2752 15.3949 14.4037 15.3949H4.77177C3.90019 15.3949 3.1925 14.6882 3.1925 13.8157H3.19345Z" stroke="black" stroke-opacity="0.99" stroke-width="0.947368"/>
</g>
</svg>
