<svg width="350" height="90" viewBox="0 0 350 90" fill="none" xmlns="http://www.w3.org/2000/svg">
<g clip-path="url(#clip0_54_527)">
<g clip-path="url(#clip1_54_527)">
<path d="M203.585 12.8702L213.475 21.4087L214.228 20.5352L204.339 11.9979L203.585 12.8702ZM213.475 21.4087C222.138 28.8879 232.257 32.8848 242.617 32.8848V31.731C232.565 31.731 222.707 27.8541 214.228 20.5352L213.475 21.4087ZM140.658 17.1302C158.259 -1.67864 184.683 -3.44864 203.585 12.8702L204.339 11.9979C184.946 -4.74441 157.819 -2.8971 139.816 16.3421L140.658 17.1302ZM108.812 32.8848C121.054 32.8848 131.192 27.246 140.658 17.1302L139.816 16.3421C130.491 26.3056 120.639 31.731 108.812 31.731V32.8848ZM16.5859 32.8848H108.812V31.731H16.5859V32.8848ZM242.617 32.8848H332.74V31.731H242.617V32.8848Z" fill="url(#paint0_radial_54_527)"/>
<path d="M14.2812 44.4231H335.05H14.2812Z" fill="#6DB27A"/>
<path d="M14.2812 44.4231H335.05" stroke="url(#paint1_radial_54_527)" stroke-width="1.15385"/>
<path d="M164.859 2.30762V36.923V2.30762Z" fill="#6DB27A"/>
<path d="M164.859 2.30762V36.923" stroke="url(#paint2_radial_54_527)" stroke-width="1.15385"/>
<path d="M183.32 2.30762V36.923V2.30762Z" fill="#6DB27A"/>
<path d="M183.32 2.30762V36.923" stroke="url(#paint3_radial_54_527)" stroke-width="1.15385"/>
<path d="M183.32 86.5381V71.5381V86.5381Z" fill="#6DB27A"/>
<path d="M183.32 86.5381V71.5381" stroke="url(#paint4_radial_54_527)" stroke-width="1.15385"/>
<path d="M164.859 86.5381V71.5381V86.5381Z" fill="#6DB27A"/>
<path d="M164.859 86.5381V71.5381" stroke="url(#paint5_radial_54_527)" stroke-width="1.15385"/>
<path d="M144.475 76.1076L144.068 76.5172L144.079 76.5288L144.475 76.1076ZM134.791 66.4868L135.197 66.0772L135.18 66.0599L135.162 66.0449L134.791 66.4868ZM209.35 70.133L207.877 71.6607L208.707 72.4615L210.181 70.9338L209.35 70.133ZM144.882 75.6992L135.197 66.0772L134.384 66.8965L144.068 76.5172L144.882 75.6992ZM135.162 66.0449C126.443 58.7168 116.303 54.8076 105.928 54.8076L105.927 55.9615C116.002 55.9615 125.886 59.7553 134.42 66.9276L135.162 66.0449ZM207.877 71.6607C198.973 80.8915 188.481 86.8592 177.61 88.0499C166.757 89.2384 155.452 85.673 144.871 75.6888L144.079 76.5288C154.876 86.7172 166.509 90.4257 177.735 89.1968C188.944 87.9692 199.671 81.8295 208.707 72.4615L207.877 71.6607ZM242.957 54.8076C230.743 54.8076 218.911 60.2226 209.35 70.133L210.181 70.9338C219.556 61.2161 231.099 55.9615 242.957 55.9615V54.8076ZM335.05 54.8076H242.957V55.9615H335.05V54.8076ZM105.928 54.8076H14.2812V55.9615H105.927L105.928 54.8076Z" fill="url(#paint6_radial_54_527)"/>
<mask id="mask0_54_527" style="mask-type:luminance" maskUnits="userSpaceOnUse" x="78" y="39" width="13" height="12">
<path d="M78.8984 39.2305H90.4369V50.7689H78.8984V39.2305Z" fill="white"/>
</mask>
<g mask="url(#mask0_54_527)">
<path d="M86.8763 50.3295C87.5848 50.0456 88.2299 49.6239 88.7742 49.0889C89.3186 48.5539 89.7513 47.9162 90.0475 47.2127C90.3436 46.5092 90.4972 45.754 90.4994 44.9908C90.5016 44.2275 90.3523 43.4714 90.0601 42.7663C89.768 42.0611 89.3389 41.421 88.7976 40.8829C88.2563 40.3448 87.6136 39.9194 86.9068 39.6314C86.1999 39.3435 85.443 39.1986 84.6798 39.2053C83.9165 39.212 83.1622 39.37 82.4605 39.6703C81.0645 40.2677 79.9602 41.3914 79.3873 42.7977C78.8144 44.204 78.819 45.7794 79.4002 47.1823C79.9814 48.5852 81.0922 49.7024 82.4918 50.2916C83.8913 50.8808 85.4668 50.8944 86.8763 50.3295Z" fill="url(#paint7_radial_54_527)"/>
<path d="M90.0944 46.2799C90.2625 45.5679 90.2887 44.8297 90.1716 44.1076C90.0544 43.3854 89.7962 42.6934 89.4116 42.0711C89.027 41.4487 88.5236 40.9082 87.9301 40.4804C87.3366 40.0526 86.6647 39.7459 85.9527 39.5778C85.2407 39.4097 84.5025 39.3835 83.7803 39.5006C83.0582 39.6178 82.3662 39.876 81.7438 40.2606C81.1215 40.6452 80.581 41.1486 80.1532 41.7421C79.7254 42.3356 79.4187 43.0075 79.2505 43.7195C78.9112 45.1574 79.1569 46.6711 79.9336 47.9278C80.7103 49.1845 81.9545 50.0811 83.3923 50.4205C84.8301 50.7599 86.3439 50.5142 87.6005 49.7374C88.8572 48.9607 89.7539 47.7166 90.0932 46.2788L90.0944 46.2799Z" fill="url(#paint8_radial_54_527)"/>
<path d="M84.6694 49.3127C84.4276 49.3127 84.1957 49.2166 84.0248 49.0457C83.8539 48.8747 83.7578 48.6429 83.7578 48.4011V41.5969C83.7581 41.3554 83.8543 41.1238 84.0252 40.9531C84.1961 40.7824 84.4278 40.6865 84.6694 40.6865C84.9107 40.6868 85.1421 40.7828 85.3128 40.9535C85.4834 41.1242 85.5794 41.3556 85.5797 41.5969V48.4023C85.5794 48.6438 85.4833 48.8754 85.3123 49.0461C85.1414 49.2168 84.9109 49.3127 84.6694 49.3127Z" fill="url(#paint9_radial_54_527)"/>
<path d="M84.6694 49.211C84.4547 49.211 84.2489 49.1259 84.097 48.9742C83.9452 48.8226 83.8597 48.6168 83.8594 48.4022V41.5968C83.8673 41.3874 83.956 41.1893 84.107 41.0439C84.2579 40.8986 84.4593 40.8174 84.6688 40.8174C84.8783 40.8174 85.0797 40.8986 85.2306 41.0439C85.3816 41.1893 85.4703 41.3874 85.4782 41.5968V48.4022C85.4782 48.617 85.3929 48.8231 85.241 48.975C85.0891 49.1269 84.883 49.2122 84.6682 49.2122L84.6694 49.211Z" fill="url(#paint10_radial_54_527)"/>
</g>
<mask id="mask1_54_527" style="mask-type:luminance" maskUnits="userSpaceOnUse" x="257" y="39" width="13" height="12">
<path d="M257.742 39.2305H269.281V50.7689H257.742V39.2305Z" fill="white"/>
</mask>
<g mask="url(#mask1_54_527)">
<path d="M265.718 50.3292C266.418 50.0394 267.054 49.6145 267.59 49.0788C268.125 48.5432 268.55 47.9072 268.84 47.2073C269.13 46.5074 269.279 45.7572 269.279 44.9997C269.279 44.2421 269.129 43.492 268.839 42.7922C268.549 42.0924 268.125 41.4565 267.589 40.9209C267.053 40.3853 266.417 39.9604 265.718 39.6705C265.018 39.3807 264.268 39.2315 263.51 39.2314C262.753 39.2314 262.003 39.3806 261.303 39.6705C260.603 39.9604 259.967 40.3852 259.432 40.9208C258.896 41.4565 258.471 42.0923 258.181 42.7921C257.891 43.492 257.742 44.242 257.742 44.9995C257.742 45.757 257.891 46.507 258.181 47.2068C258.767 48.6202 259.89 49.7432 261.303 50.3287C262.717 50.9142 264.305 50.9144 265.718 50.3292Z" fill="url(#paint11_radial_54_527)"/>
<path d="M268.934 46.2792C269.105 45.5663 269.133 44.8268 269.017 44.1031C268.901 43.3793 268.643 42.6855 268.259 42.0615C267.874 41.4375 267.37 40.8955 266.776 40.4665C266.182 40.0376 265.509 39.7302 264.795 39.5619C264.082 39.3936 263.342 39.3678 262.619 39.4858C261.895 39.6039 261.202 39.8636 260.58 40.2499C259.957 40.6363 259.416 41.1418 258.989 41.7375C258.562 42.3331 258.256 43.0072 258.09 43.7211C257.756 45.1573 258.005 46.6674 258.782 47.9205C259.559 49.1735 260.802 50.0672 262.237 50.4058C263.672 50.7444 265.183 50.5001 266.438 49.7266C267.694 48.953 268.591 47.7133 268.934 46.2792Z" fill="url(#paint12_radial_54_527)"/>
<path d="M263.512 49.3127C263.27 49.3124 263.039 49.2162 262.868 49.0453C262.697 48.8744 262.602 48.6427 262.602 48.4011V41.5969C262.613 41.3634 262.714 41.1433 262.884 40.9822C263.053 40.8211 263.278 40.7312 263.512 40.7312C263.746 40.7312 263.971 40.8211 264.14 40.9822C264.31 41.1433 264.411 41.3634 264.422 41.5969V48.4023C264.422 48.6436 264.326 48.875 264.155 49.0457C263.985 49.2163 263.753 49.3124 263.512 49.3127Z" fill="url(#paint13_radial_54_527)"/>
<path d="M263.512 49.211C263.298 49.2107 263.092 49.1254 262.94 48.9738C262.789 48.8222 262.703 48.6166 262.703 48.4022V41.5968C262.711 41.3874 262.8 41.1893 262.951 41.0439C263.102 40.8986 263.303 40.8174 263.513 40.8174C263.722 40.8174 263.923 40.8986 264.074 41.0439C264.225 41.1893 264.314 41.3874 264.322 41.5968V48.4022C264.322 48.617 264.237 48.8231 264.085 48.975C263.933 49.1269 263.727 49.211 263.512 49.211Z" fill="url(#paint14_radial_54_527)"/>
</g>
<g filter="url(#filter0_f_54_527)">
<rect x="-59" y="12" width="128" height="64" fill="#FCFAFE"/>
</g>
<g filter="url(#filter1_f_54_527)">
<rect x="273" y="15" width="128" height="64" fill="#FCFAFE"/>
</g>
</g>
</g>
<rect x="141.656" y="12" width="66" height="66" rx="33" fill="url(#paint15_radial_54_527)"/>
<rect x="143.656" y="14" width="62" height="62" rx="31" fill="url(#paint16_linear_54_527)"/>
<g clip-path="url(#clip2_54_527)">
<path d="M174.631 59.2376L174.536 59.2406C172.886 59.2365 171.636 58.5606 170.253 57.7608L167.708 56.3139L166.063 55.5283C164.792 54.9709 163.48 54.3307 163.104 52.844C162.999 52.4269 163.04 51.9556 163.039 51.5275L163.041 44.0757C163.005 44.058 162.969 44.0416 162.931 44.0314C162.146 43.8275 160.952 43.1215 160.875 42.2178C160.784 41.15 162.849 39.199 163.529 38.4993C163.804 38.2165 164.068 37.895 164.387 37.6612C165.272 37.0115 166.507 36.4552 167.504 36.0197L170.236 34.8776L173.068 33.9828C173.526 33.85 173.934 33.67 174.415 33.6195C174.993 33.5436 175.504 33.8163 176.041 33.9765L180.314 35.4792C181.445 35.9399 182.566 36.446 183.638 37.0316C184.669 37.5947 185.26 38.1776 186.071 39.0253C186.766 39.7525 188.677 41.5709 188.035 42.6733C187.606 43.4112 186.813 43.7813 186.024 43.9936L186.023 51.7108C186.022 52.0776 186.061 52.5034 185.961 52.8584C185.452 54.6632 183.973 55.0864 182.467 55.7654L180.595 56.7015L178.59 57.8583C177.34 58.6016 176.117 59.186 174.631 59.2376ZM174.513 34.4668C174.038 34.5375 170.127 35.7481 169.98 35.9277C170.176 36.0549 170.401 36.1397 170.612 36.2395L178.621 40.1567C178.769 40.2217 178.929 40.3134 179.084 40.3547L179.505 40.2237L184.168 38.348C183.681 38.0126 183.157 37.7463 182.632 37.475C180.484 36.3652 178.182 35.5323 175.872 34.8302L175.16 34.6046C174.95 34.5379 174.736 34.4607 174.513 34.4668ZM168.893 36.3779L167.214 37.098C166.441 37.453 165.619 37.8383 164.93 38.3467L174.135 41.9949L174.375 42.1131L177.93 40.7961C177.63 40.6946 177.336 40.5353 177.048 40.3997L168.893 36.3779ZM164.273 38.9733C163.581 39.6349 162.934 40.3235 162.34 41.0747C161.969 41.5437 161.461 42.0549 162.004 42.5693C162.703 43.2322 163.849 43.3915 164.728 43.689L169.875 45.4313C170.264 45.5512 170.606 45.6606 171.019 45.643L171.224 45.6201C171.818 45.5071 172.179 45.1604 172.509 44.6749L173.733 42.7483L172.005 42.1423L165.006 39.3012C164.762 39.1958 164.506 39.0992 164.273 38.9733ZM184.779 39.0052L175.004 42.7694C175.767 43.7303 176.214 45.4115 177.57 45.6245C178.352 45.677 178.96 45.3685 179.692 45.1368L185.067 43.4242C187.939 42.4996 187.842 42.1751 185.856 40.0363L184.779 39.0052ZM174.796 43.9653L174.807 56.8655C174.806 56.9143 174.799 56.9494 174.778 56.9932L174.768 57.0146C174.564 57.4183 173.948 57.3194 173.948 56.6277L173.949 44.2641C173.949 44.1827 173.959 44.0874 173.944 44.0086L173.938 44.0268C173.891 44.1635 173.756 44.3065 173.68 44.4354L173.418 44.8703C171.894 47.3618 170.082 46.4116 167.909 45.6866L163.894 44.3048C163.873 44.3566 163.884 44.435 163.884 44.4924L163.884 50.5108C163.884 51.1572 163.855 51.8191 163.898 52.4636C163.944 53.1555 164.651 53.8886 165.22 54.1913C165.771 54.4826 166.348 54.7165 166.914 54.9747L168.362 55.7055L171.311 57.4219C174.452 59.1547 175.944 58.407 178.884 56.6945L181.353 55.3392L182.684 54.7127C183.837 54.223 184.791 53.9008 185.147 52.5298C185.216 52.2605 185.18 51.9094 185.181 51.63L185.154 44.3194C185.071 44.3697 184.937 44.3761 184.843 44.4059L179.781 46.0142C178.903 46.2924 178.062 46.7102 177.126 46.4382C176.039 46.1225 175.44 45.1532 174.932 44.2172L174.796 43.9653Z" fill="white"/>
<path d="M177.633 53.9293C176.518 54.0001 176.176 52.5701 177.124 51.9847C177.473 51.769 177.873 51.6079 178.24 51.4232L181.075 50.0205C181.292 49.9147 181.491 49.8149 181.73 49.768C182.946 49.6522 183.156 51.2214 182.205 51.8093C182.067 51.895 181.912 51.9582 181.764 52.0268L179.091 53.31C178.629 53.5322 178.137 53.823 177.633 53.9293ZM181.878 50.658C180.82 51.0818 179.785 51.6101 178.77 52.1269C178.383 52.3239 177.953 52.5 177.593 52.7411C177.426 52.8525 177.358 53.0726 177.544 53.0608C177.753 53.0035 177.96 52.8838 178.155 52.7903L181.674 51.0769C181.821 50.9946 182.118 50.8416 181.904 50.6591L181.878 50.658Z" fill="white"/>
</g>
<defs>
<filter id="filter0_f_54_527" x="-88.9" y="-17.9" width="187.8" height="123.8" filterUnits="userSpaceOnUse" color-interpolation-filters="sRGB">
<feFlood flood-opacity="0" result="BackgroundImageFix"/>
<feBlend mode="normal" in="SourceGraphic" in2="BackgroundImageFix" result="shape"/>
<feGaussianBlur stdDeviation="14.95" result="effect1_foregroundBlur_54_527"/>
</filter>
<filter id="filter1_f_54_527" x="243.1" y="-14.9" width="187.8" height="123.8" filterUnits="userSpaceOnUse" color-interpolation-filters="sRGB">
<feFlood flood-opacity="0" result="BackgroundImageFix"/>
<feBlend mode="normal" in="SourceGraphic" in2="BackgroundImageFix" result="shape"/>
<feGaussianBlur stdDeviation="14.95" result="effect1_foregroundBlur_54_527"/>
</filter>
<radialGradient id="paint0_radial_54_527" cx="0" cy="0" r="1" gradientUnits="userSpaceOnUse" gradientTransform="translate(174.663 16.7308) scale(158.077 83.6809)">
<stop stop-color="#BFDCC4"/>
<stop offset="1" stop-color="#469E57"/>
</radialGradient>
<radialGradient id="paint1_radial_54_527" cx="0" cy="0" r="1" gradientUnits="userSpaceOnUse" gradientTransform="translate(-nan -nan) rotate(-nan) scale(-nan -nan)">
<stop stop-color="#70B47B"/>
<stop offset="1" stop-color="#5EAB6C" stop-opacity="0.56"/>
</radialGradient>
<radialGradient id="paint2_radial_54_527" cx="0" cy="0" r="1" gradientUnits="userSpaceOnUse" gradientTransform="translate(-nan -nan) rotate(-nan) scale(-nan -nan)">
<stop stop-color="#70B47B"/>
<stop offset="1" stop-color="#5EAB6C" stop-opacity="0.56"/>
</radialGradient>
<radialGradient id="paint3_radial_54_527" cx="0" cy="0" r="1" gradientUnits="userSpaceOnUse" gradientTransform="translate(-nan -nan) rotate(-nan) scale(-nan -nan)">
<stop stop-color="#70B47B"/>
<stop offset="1" stop-color="#5EAB6C" stop-opacity="0.56"/>
</radialGradient>
<radialGradient id="paint4_radial_54_527" cx="0" cy="0" r="1" gradientUnits="userSpaceOnUse" gradientTransform="translate(-nan -nan) rotate(-nan) scale(-nan -nan)">
<stop stop-color="#70B47B"/>
<stop offset="1" stop-color="#5EAB6C" stop-opacity="0.56"/>
</radialGradient>
<radialGradient id="paint5_radial_54_527" cx="0" cy="0" r="1" gradientUnits="userSpaceOnUse" gradientTransform="translate(-nan -nan) rotate(-nan) scale(-nan -nan)">
<stop stop-color="#70B47B"/>
<stop offset="1" stop-color="#5EAB6C" stop-opacity="0.56"/>
</radialGradient>
<radialGradient id="paint6_radial_54_527" cx="0" cy="0" r="1" gradientUnits="userSpaceOnUse" gradientTransform="translate(174.666 72.1153) scale(160.385 89.6589)">
<stop stop-color="#BFDCC4"/>
<stop offset="1" stop-color="#469E57"/>
</radialGradient>
<radialGradient id="paint7_radial_54_527" cx="0" cy="0" r="1" gradientUnits="userSpaceOnUse" gradientTransform="translate(84.7302 44.9743) scale(5.76923 29.8861)">
<stop stop-color="#BFDCC4"/>
<stop offset="1" stop-color="#469E57"/>
</radialGradient>
<radialGradient id="paint8_radial_54_527" cx="0" cy="0" r="1" gradientUnits="userSpaceOnUse" gradientTransform="translate(84.6725 44.999) scale(5.57096 28.856)">
<stop stop-color="#BFDCC4"/>
<stop offset="1" stop-color="#469E57"/>
</radialGradient>
<radialGradient id="paint9_radial_54_527" cx="0" cy="0" r="1" gradientUnits="userSpaceOnUse" gradientTransform="translate(84.6688 44.9996) scale(0.910963 22.3428)">
<stop stop-color="#BFDCC4"/>
<stop offset="1" stop-color="#469E57"/>
</radialGradient>
<radialGradient id="paint10_radial_54_527" cx="0" cy="0" r="1" gradientUnits="userSpaceOnUse" gradientTransform="translate(84.6688 45.0148) scale(0.809423 21.7436)">
<stop stop-color="#BFDCC4"/>
<stop offset="1" stop-color="#469E57"/>
</radialGradient>
<radialGradient id="paint11_radial_54_527" cx="0" cy="0" r="1" gradientUnits="userSpaceOnUse" gradientTransform="translate(263.511 44.9997) scale(5.76841 29.881)">
<stop stop-color="#BFDCC4"/>
<stop offset="1" stop-color="#469E57"/>
</radialGradient>
<radialGradient id="paint12_radial_54_527" cx="0" cy="0" r="1" gradientUnits="userSpaceOnUse" gradientTransform="translate(263.516 44.9838) scale(5.57078 28.858)">
<stop stop-color="#BFDCC4"/>
<stop offset="1" stop-color="#469E57"/>
</radialGradient>
<radialGradient id="paint13_radial_54_527" cx="0" cy="0" r="1" gradientUnits="userSpaceOnUse" gradientTransform="translate(263.512 45.0219) scale(0.910386 22.227)">
<stop stop-color="#BFDCC4"/>
<stop offset="1" stop-color="#469E57"/>
</radialGradient>
<radialGradient id="paint14_radial_54_527" cx="0" cy="0" r="1" gradientUnits="userSpaceOnUse" gradientTransform="translate(263.513 45.0148) scale(0.809423 21.7436)">
<stop stop-color="#BFDCC4"/>
<stop offset="1" stop-color="#469E57"/>
</radialGradient>
<radialGradient id="paint15_radial_54_527" cx="0" cy="0" r="1" gradientUnits="userSpaceOnUse" gradientTransform="translate(174.656 44.9997) scale(33 170.948)">
<stop stop-color="#BFDCC4"/>
<stop offset="1" stop-color="#469E57"/>
</radialGradient>
<linearGradient id="paint16_linear_54_527" x1="174.656" y1="14" x2="216.229" y2="24.4787" gradientUnits="userSpaceOnUse">
<stop stop-color="#70B47B"/>
<stop offset="1" stop-color="#37964B"/>
</linearGradient>
<clipPath id="clip0_54_527">
<rect width="349.33" height="90" fill="white"/>
</clipPath>
<clipPath id="clip1_54_527">
<rect width="320.769" height="90" fill="white" transform="translate(14.2812)"/>
</clipPath>
<clipPath id="clip2_54_527">
<rect x="157.656" y="28" width="34" height="34" rx="17" fill="white"/>
</clipPath>
</defs>
</svg>
