<svg width="28" height="27" viewBox="0 0 28 27" fill="none" xmlns="http://www.w3.org/2000/svg">
<mask id="mask0_54_794" style="mask-type:luminance" maskUnits="userSpaceOnUse" x="0" y="0" width="28" height="27">
<path d="M0.054657 0.256836H27.1357V26.9238H0.054657V0.256836Z" fill="white"/>
</mask>
<g mask="url(#mask0_54_794)">
<path d="M5.28667 1.65336C11.1267 -1.62164 19.4717 1.06336 23.9277 7.65836C28.3837 14.2524 27.2627 22.2514 21.4247 25.5274C26.3887 22.7434 27.3407 15.9404 23.5527 10.3374C19.7657 4.73436 12.6697 2.44936 7.70867 5.23236C2.74367 8.01936 1.79167 14.8194 5.57667 20.4254C9.36467 26.0294 16.4567 28.3144 21.4217 25.5274C15.5797 28.8064 7.23567 26.1174 2.77967 19.5224C-1.67333 12.9324 -0.551326 4.92936 5.28667 1.65336Z" fill="#5B5E71"/>
<path d="M9.62868 3.77336C14.4137 1.08736 21.2517 3.29036 24.8987 8.69136C28.5497 14.0924 27.6307 20.6474 22.8457 23.3334C26.9137 21.0514 27.6927 15.4784 24.5897 10.8884C21.4897 6.29836 15.6747 4.42436 11.6097 6.70636C7.54168 8.98836 6.76268 14.5624 9.86568 19.1544C12.9697 23.7474 18.7807 25.6184 22.8487 23.3344C18.0637 26.0194 11.2257 23.8194 7.57868 18.4144C3.92668 13.0144 4.84668 6.45536 9.63168 3.77336H9.62868Z" fill="#72758D"/>
<path d="M16.3487 3.55801C21.4217 3.87801 26.0667 8.28401 26.7217 13.402C27.3737 18.519 23.7917 22.408 18.7187 22.092C23.0317 22.362 26.0757 19.057 25.5217 14.705C24.9647 10.354 21.0207 6.60901 16.7077 6.33801C12.3957 6.06801 9.34767 9.37302 9.90567 13.724C10.4627 18.076 14.4097 21.821 18.7187 22.092C13.6467 21.772 9.00567 17.365 8.35067 12.248C7.69567 7.13002 11.2777 3.24201 16.3527 3.55801H16.3487Z" fill="#5B5E71"/>
<path d="M21.669 5.62844C25.681 8.03644 27.575 12.9354 25.903 16.5674C24.228 20.1974 19.619 21.1894 15.606 18.7804C19.019 20.8274 22.936 19.9864 24.358 16.9004C25.783 13.8124 24.169 9.65044 20.759 7.60044C17.347 5.55344 13.429 6.39444 12.007 9.48044C10.583 12.5674 12.193 16.7304 15.606 18.7774C11.594 16.3674 9.69998 11.4694 11.376 7.83744C13.05 4.20744 17.66 3.21544 21.672 5.62444L21.669 5.62844Z" fill="#66697F"/>
</g>
</svg>
