<svg width="56" height="56" viewBox="0 0 56 56" fill="none" xmlns="http://www.w3.org/2000/svg">
<rect width="56" height="56" rx="16" fill="#5FC04A"/>
<path d="M39 17H17C15.35 17 14 18.35 14 20V23C14 23.88 14.39 24.67 15 25.22V30C15 37.17 20.83 43 28 43C35.17 43 41 37.17 41 30V25.22C41.61 24.67 42 23.88 42 23V20C42 18.35 40.65 17 39 17ZM16 20C16 19.45 16.45 19 17 19H39C39.55 19 40 19.45 40 20V23C40 23.55 39.55 24 39 24H17C16.45 24 16 23.55 16 23V20ZM39 30C39 36.07 34.07 41 28 41C21.93 41 17 36.07 17 30V26H39V30Z" fill="white"/>
<path d="M28 39C31.31 39 34 36.31 34 33C34 29.69 31.31 27 28 27C24.69 27 22 29.69 22 33C22 36.31 24.69 39 28 39ZM28 29C30.21 29 32 30.79 32 33C32 35.21 30.21 37 28 37C25.79 37 24 35.21 24 33C24 30.79 25.79 29 28 29Z" fill="white"/>
<path d="M28 35C29.1046 35 30 34.1046 30 33C30 31.8954 29.1046 31 28 31C26.8954 31 26 31.8954 26 33C26 34.1046 26.8954 35 28 35Z" fill="white"/>
</svg>
