<svg width="350" height="90" viewBox="0 0 350 90" fill="none" xmlns="http://www.w3.org/2000/svg">
<g clip-path="url(#clip0_54_403)">
<g clip-path="url(#clip1_54_403)">
<path d="M203.585 12.8702L213.475 21.4087L214.228 20.5352L204.339 11.9979L203.585 12.8702ZM213.475 21.4087C222.138 28.8879 232.257 32.8848 242.617 32.8848V31.731C232.565 31.731 222.707 27.8541 214.228 20.5352L213.475 21.4087ZM140.658 17.1302C158.259 -1.67864 184.683 -3.44864 203.585 12.8702L204.339 11.9979C184.946 -4.74441 157.819 -2.8971 139.816 16.3421L140.658 17.1302ZM108.812 32.8848C121.054 32.8848 131.192 27.246 140.658 17.1302L139.816 16.3421C130.491 26.3056 120.639 31.731 108.812 31.731V32.8848ZM16.5859 32.8848H108.812V31.731H16.5859V32.8848ZM242.617 32.8848H332.74V31.731H242.617V32.8848Z" fill="url(#paint0_radial_54_403)"/>
<path d="M14.2812 44.4231H335.05H14.2812Z" fill="#6DB27A"/>
<path d="M14.2812 44.4231H335.05" stroke="url(#paint1_radial_54_403)" stroke-width="1.15385"/>
<path d="M164.859 2.30762V36.923V2.30762Z" fill="#6DB27A"/>
<path d="M164.859 2.30762V36.923" stroke="url(#paint2_radial_54_403)" stroke-width="1.15385"/>
<path d="M183.32 2.30762V36.923V2.30762Z" fill="#6DB27A"/>
<path d="M183.32 2.30762V36.923" stroke="url(#paint3_radial_54_403)" stroke-width="1.15385"/>
<path d="M183.32 86.5381V71.5381V86.5381Z" fill="#6DB27A"/>
<path d="M183.32 86.5381V71.5381" stroke="url(#paint4_radial_54_403)" stroke-width="1.15385"/>
<path d="M164.859 86.5381V71.5381V86.5381Z" fill="#6DB27A"/>
<path d="M164.859 86.5381V71.5381" stroke="url(#paint5_radial_54_403)" stroke-width="1.15385"/>
<path d="M144.475 76.1077L144.068 76.5174L144.079 76.5289L144.475 76.1077ZM134.791 66.487L135.197 66.0774L135.18 66.06L135.162 66.045L134.791 66.487ZM209.35 70.1331L207.877 71.6608L208.707 72.4616L210.181 70.9339L209.35 70.1331ZM144.882 75.6993L135.197 66.0774L134.384 66.8966L144.068 76.5174L144.882 75.6993ZM135.162 66.045C126.443 58.717 116.303 54.8077 105.928 54.8077L105.927 55.9616C116.002 55.9616 125.886 59.7554 134.42 66.9277L135.162 66.045ZM207.877 71.6608C198.973 80.8916 188.481 86.8593 177.61 88.05C166.757 89.2385 155.452 85.6731 144.871 75.6889L144.079 76.5289C154.876 86.7174 166.509 90.4258 177.735 89.197C188.944 87.9693 199.671 81.8297 208.707 72.4616L207.877 71.6608ZM242.957 54.8077C230.743 54.8077 218.911 60.2227 209.35 70.1331L210.181 70.9339C219.556 61.2162 231.099 55.9616 242.957 55.9616V54.8077ZM335.05 54.8077H242.957V55.9616H335.05V54.8077ZM105.928 54.8077H14.2812V55.9616H105.927L105.928 54.8077Z" fill="url(#paint6_radial_54_403)"/>
<mask id="mask0_54_403" style="mask-type:luminance" maskUnits="userSpaceOnUse" x="78" y="39" width="13" height="12">
<path d="M78.8984 39.2305H90.4369V50.7689H78.8984V39.2305Z" fill="white"/>
</mask>
<g mask="url(#mask0_54_403)">
<path d="M86.8763 50.3295C87.5848 50.0456 88.2299 49.6239 88.7742 49.0889C89.3186 48.5539 89.7513 47.9162 90.0475 47.2127C90.3436 46.5092 90.4972 45.754 90.4994 44.9908C90.5016 44.2275 90.3523 43.4714 90.0601 42.7663C89.768 42.0611 89.3389 41.421 88.7976 40.8829C88.2563 40.3448 87.6136 39.9194 86.9068 39.6314C86.1999 39.3435 85.443 39.1986 84.6798 39.2053C83.9165 39.212 83.1622 39.37 82.4605 39.6703C81.0645 40.2677 79.9602 41.3914 79.3873 42.7977C78.8144 44.204 78.819 45.7794 79.4002 47.1823C79.9814 48.5852 81.0922 49.7024 82.4918 50.2916C83.8913 50.8808 85.4668 50.8944 86.8763 50.3295Z" fill="url(#paint7_radial_54_403)"/>
<path d="M90.0944 46.2799C90.2625 45.5679 90.2887 44.8297 90.1716 44.1076C90.0544 43.3854 89.7962 42.6934 89.4116 42.0711C89.027 41.4487 88.5236 40.9082 87.9301 40.4804C87.3366 40.0526 86.6647 39.7459 85.9527 39.5778C85.2407 39.4097 84.5025 39.3835 83.7803 39.5006C83.0582 39.6178 82.3662 39.876 81.7438 40.2606C81.1215 40.6452 80.581 41.1486 80.1532 41.7421C79.7254 42.3356 79.4187 43.0075 79.2505 43.7195C78.9112 45.1574 79.1569 46.6711 79.9336 47.9278C80.7103 49.1845 81.9545 50.0811 83.3923 50.4205C84.8301 50.7599 86.3439 50.5142 87.6005 49.7374C88.8572 48.9607 89.7539 47.7166 90.0932 46.2788L90.0944 46.2799Z" fill="url(#paint8_radial_54_403)"/>
<path d="M84.6694 49.3127C84.4276 49.3127 84.1957 49.2166 84.0248 49.0457C83.8539 48.8747 83.7578 48.6429 83.7578 48.4011V41.5969C83.7581 41.3554 83.8543 41.1238 84.0252 40.9531C84.1961 40.7824 84.4278 40.6865 84.6694 40.6865C84.9107 40.6868 85.1421 40.7828 85.3128 40.9535C85.4834 41.1242 85.5794 41.3556 85.5797 41.5969V48.4023C85.5794 48.6438 85.4833 48.8754 85.3123 49.0461C85.1414 49.2168 84.9109 49.3127 84.6694 49.3127Z" fill="url(#paint9_radial_54_403)"/>
<path d="M84.6694 49.211C84.4547 49.211 84.2489 49.1259 84.097 48.9742C83.9452 48.8226 83.8597 48.6168 83.8594 48.4022V41.5968C83.8673 41.3874 83.956 41.1893 84.107 41.0439C84.2579 40.8986 84.4593 40.8174 84.6688 40.8174C84.8783 40.8174 85.0797 40.8986 85.2306 41.0439C85.3816 41.1893 85.4703 41.3874 85.4782 41.5968V48.4022C85.4782 48.617 85.3929 48.8231 85.241 48.975C85.0891 49.1269 84.883 49.2122 84.6682 49.2122L84.6694 49.211Z" fill="url(#paint10_radial_54_403)"/>
</g>
<mask id="mask1_54_403" style="mask-type:luminance" maskUnits="userSpaceOnUse" x="257" y="39" width="13" height="12">
<path d="M257.742 39.2305H269.281V50.7689H257.742V39.2305Z" fill="white"/>
</mask>
<g mask="url(#mask1_54_403)">
<path d="M265.718 50.3292C266.418 50.0394 267.054 49.6145 267.59 49.0788C268.125 48.5432 268.55 47.9072 268.84 47.2073C269.13 46.5074 269.279 45.7572 269.279 44.9997C269.279 44.2421 269.129 43.492 268.839 42.7922C268.549 42.0924 268.125 41.4565 267.589 40.9209C267.053 40.3853 266.417 39.9604 265.718 39.6705C265.018 39.3807 264.268 39.2315 263.51 39.2314C262.753 39.2314 262.003 39.3806 261.303 39.6705C260.603 39.9604 259.967 40.3852 259.432 40.9208C258.896 41.4565 258.471 42.0923 258.181 42.7921C257.891 43.492 257.742 44.242 257.742 44.9995C257.742 45.757 257.891 46.507 258.181 47.2068C258.767 48.6202 259.89 49.7432 261.303 50.3287C262.717 50.9142 264.305 50.9144 265.718 50.3292Z" fill="url(#paint11_radial_54_403)"/>
<path d="M268.934 46.2792C269.105 45.5663 269.133 44.8268 269.017 44.1031C268.901 43.3793 268.643 42.6855 268.259 42.0615C267.874 41.4375 267.37 40.8955 266.776 40.4665C266.182 40.0376 265.509 39.7302 264.795 39.5619C264.082 39.3936 263.342 39.3678 262.619 39.4858C261.895 39.6039 261.202 39.8636 260.58 40.2499C259.957 40.6363 259.416 41.1418 258.989 41.7375C258.562 42.3331 258.256 43.0072 258.09 43.7211C257.756 45.1573 258.005 46.6674 258.782 47.9205C259.559 49.1735 260.802 50.0672 262.237 50.4058C263.672 50.7444 265.183 50.5001 266.438 49.7266C267.694 48.953 268.591 47.7133 268.934 46.2792Z" fill="url(#paint12_radial_54_403)"/>
<path d="M263.512 49.3128C263.27 49.3125 263.039 49.2163 262.868 49.0454C262.697 48.8745 262.602 48.6428 262.602 48.4012V41.597C262.613 41.3635 262.714 41.1434 262.884 40.9823C263.053 40.8212 263.278 40.7313 263.512 40.7313C263.746 40.7313 263.971 40.8212 264.14 40.9823C264.31 41.1434 264.411 41.3635 264.422 41.597V48.4024C264.422 48.6438 264.326 48.8751 264.155 49.0458C263.985 49.2165 263.753 49.3125 263.512 49.3128Z" fill="url(#paint13_radial_54_403)"/>
<path d="M263.512 49.211C263.298 49.2107 263.092 49.1254 262.94 48.9738C262.789 48.8222 262.703 48.6166 262.703 48.4022V41.5968C262.711 41.3874 262.8 41.1893 262.951 41.0439C263.102 40.8986 263.303 40.8174 263.513 40.8174C263.722 40.8174 263.923 40.8986 264.074 41.0439C264.225 41.1893 264.314 41.3874 264.322 41.5968V48.4022C264.322 48.617 264.237 48.8231 264.085 48.975C263.933 49.1269 263.727 49.211 263.512 49.211Z" fill="url(#paint14_radial_54_403)"/>
</g>
<g filter="url(#filter0_f_54_403)">
<rect x="-59" y="12" width="128" height="64" fill="#FCFAFE"/>
</g>
<g filter="url(#filter1_f_54_403)">
<rect x="273" y="15" width="128" height="64" fill="#FCFAFE"/>
</g>
</g>
</g>
<rect x="141.656" y="12" width="66" height="66" rx="33" fill="url(#paint15_radial_54_403)"/>
<rect x="143.656" y="14" width="62" height="62" rx="31" fill="url(#paint16_linear_54_403)"/>
<g clip-path="url(#clip2_54_403)">
<g clip-path="url(#clip3_54_403)">
<path fill-rule="evenodd" clip-rule="evenodd" d="M174.653 39.382C170.832 39.382 167.735 42.4303 167.735 46.1912C167.735 48.0717 168.507 49.7717 169.761 51.0048C169.852 51.0943 169.925 51.2013 169.975 51.3194C170.025 51.4376 170.05 51.5645 170.05 51.6927C170.05 51.8208 170.025 51.9477 169.975 52.0659C169.925 52.184 169.852 52.291 169.761 52.3805C169.574 52.5633 169.323 52.6657 169.062 52.6657C168.8 52.6657 168.549 52.5633 168.363 52.3805C167.538 51.5742 166.883 50.6115 166.436 49.5486C165.989 48.4858 165.758 47.3443 165.758 46.1912C165.758 41.3567 169.74 37.4375 174.653 37.4375C179.566 37.4375 183.548 41.3567 183.548 46.1912C183.547 47.3443 183.317 48.4858 182.87 49.5486C182.422 50.6115 181.767 51.5742 180.943 52.3805C180.756 52.5633 180.505 52.6657 180.244 52.6657C179.982 52.6657 179.732 52.5633 179.545 52.3805C179.453 52.291 179.38 52.184 179.33 52.0659C179.281 51.9477 179.255 51.8208 179.255 51.6927C179.255 51.5645 179.281 51.4376 179.33 51.3194C179.38 51.2013 179.453 51.0943 179.545 51.0048C180.186 50.378 180.696 49.6293 181.044 48.8026C181.392 47.976 181.572 47.0881 181.572 46.1912C181.572 42.4303 178.474 39.382 174.653 39.382Z" fill="white"/>
<path fill-rule="evenodd" clip-rule="evenodd" d="M174.658 34.1958C167.926 34.1958 162.468 39.5652 162.468 46.1913C162.468 47.7716 162.784 49.336 163.397 50.7925C164.01 52.249 164.908 53.5684 166.038 54.673C166.13 54.7625 166.203 54.8695 166.253 54.9876C166.302 55.1058 166.328 55.2327 166.328 55.3608C166.328 55.489 166.302 55.6159 166.253 55.7341C166.203 55.8522 166.13 55.9592 166.038 56.0487C165.851 56.2311 165.601 56.3333 165.34 56.3333C165.079 56.3333 164.828 56.2311 164.641 56.0487C163.328 54.7647 162.285 53.2314 161.572 51.5387C160.86 49.8459 160.493 48.0279 160.492 46.1913C160.492 38.4916 166.834 32.25 174.658 32.25C182.482 32.25 188.825 38.4916 188.825 46.19C188.825 50.0398 187.238 53.5262 184.675 56.0487C184.489 56.2315 184.238 56.3339 183.976 56.3339C183.715 56.3339 183.464 56.2315 183.277 56.0487C183.186 55.9592 183.113 55.8522 183.063 55.7341C183.013 55.6159 182.988 55.489 182.988 55.3608C182.988 55.2327 183.013 55.1058 183.063 54.9876C183.113 54.8695 183.186 54.7625 183.277 54.673C184.408 53.5684 185.305 52.249 185.919 50.7925C186.532 49.336 186.847 47.7716 186.847 46.1913C186.847 39.5652 181.39 34.1958 174.658 34.1958Z" fill="white"/>
<path d="M172.266 52.572C173.351 51.3297 173.895 50.7098 174.567 50.6693C174.627 50.6667 174.69 50.6667 174.75 50.6693C175.422 50.7098 175.966 51.331 177.053 52.5707C179.42 55.271 180.602 56.6206 180.27 57.7857C180.242 57.8849 180.207 57.9819 180.165 58.076C179.678 59.1667 178.005 59.1667 174.659 59.1667C171.312 59.1667 169.64 59.1667 169.153 58.076C169.111 57.9819 169.076 57.8849 169.047 57.7857C168.715 56.6206 169.897 55.271 172.264 52.5707L172.266 52.572ZM178.2 45.7092C178.2 46.6484 177.827 47.5491 177.163 48.2132C176.498 48.8773 175.598 49.2504 174.659 49.2504C173.719 49.2504 172.819 48.8773 172.155 48.2132C171.49 47.5491 171.117 46.6484 171.117 45.7092C171.117 44.77 171.49 43.8693 172.155 43.2052C172.819 42.5411 173.719 42.168 174.659 42.168C175.598 42.168 176.498 42.5411 177.163 43.2052C177.827 43.8693 178.2 44.77 178.2 45.7092Z" fill="white"/>
</g>
</g>
<defs>
<filter id="filter0_f_54_403" x="-88.9" y="-17.9" width="187.8" height="123.8" filterUnits="userSpaceOnUse" color-interpolation-filters="sRGB">
<feFlood flood-opacity="0" result="BackgroundImageFix"/>
<feBlend mode="normal" in="SourceGraphic" in2="BackgroundImageFix" result="shape"/>
<feGaussianBlur stdDeviation="14.95" result="effect1_foregroundBlur_54_403"/>
</filter>
<filter id="filter1_f_54_403" x="243.1" y="-14.9" width="187.8" height="123.8" filterUnits="userSpaceOnUse" color-interpolation-filters="sRGB">
<feFlood flood-opacity="0" result="BackgroundImageFix"/>
<feBlend mode="normal" in="SourceGraphic" in2="BackgroundImageFix" result="shape"/>
<feGaussianBlur stdDeviation="14.95" result="effect1_foregroundBlur_54_403"/>
</filter>
<radialGradient id="paint0_radial_54_403" cx="0" cy="0" r="1" gradientUnits="userSpaceOnUse" gradientTransform="translate(174.663 16.7308) scale(158.077 83.6809)">
<stop stop-color="#BFDCC4"/>
<stop offset="1" stop-color="#469E57"/>
</radialGradient>
<radialGradient id="paint1_radial_54_403" cx="0" cy="0" r="1" gradientUnits="userSpaceOnUse" gradientTransform="translate(-nan -nan) rotate(-nan) scale(-nan -nan)">
<stop stop-color="#70B47B"/>
<stop offset="1" stop-color="#5EAB6C" stop-opacity="0.56"/>
</radialGradient>
<radialGradient id="paint2_radial_54_403" cx="0" cy="0" r="1" gradientUnits="userSpaceOnUse" gradientTransform="translate(-nan -nan) rotate(-nan) scale(-nan -nan)">
<stop stop-color="#70B47B"/>
<stop offset="1" stop-color="#5EAB6C" stop-opacity="0.56"/>
</radialGradient>
<radialGradient id="paint3_radial_54_403" cx="0" cy="0" r="1" gradientUnits="userSpaceOnUse" gradientTransform="translate(-nan -nan) rotate(-nan) scale(-nan -nan)">
<stop stop-color="#70B47B"/>
<stop offset="1" stop-color="#5EAB6C" stop-opacity="0.56"/>
</radialGradient>
<radialGradient id="paint4_radial_54_403" cx="0" cy="0" r="1" gradientUnits="userSpaceOnUse" gradientTransform="translate(-nan -nan) rotate(-nan) scale(-nan -nan)">
<stop stop-color="#70B47B"/>
<stop offset="1" stop-color="#5EAB6C" stop-opacity="0.56"/>
</radialGradient>
<radialGradient id="paint5_radial_54_403" cx="0" cy="0" r="1" gradientUnits="userSpaceOnUse" gradientTransform="translate(-nan -nan) rotate(-nan) scale(-nan -nan)">
<stop stop-color="#70B47B"/>
<stop offset="1" stop-color="#5EAB6C" stop-opacity="0.56"/>
</radialGradient>
<radialGradient id="paint6_radial_54_403" cx="0" cy="0" r="1" gradientUnits="userSpaceOnUse" gradientTransform="translate(174.666 72.1154) scale(160.385 89.6589)">
<stop stop-color="#BFDCC4"/>
<stop offset="1" stop-color="#469E57"/>
</radialGradient>
<radialGradient id="paint7_radial_54_403" cx="0" cy="0" r="1" gradientUnits="userSpaceOnUse" gradientTransform="translate(84.7302 44.9743) scale(5.76923 29.8861)">
<stop stop-color="#BFDCC4"/>
<stop offset="1" stop-color="#469E57"/>
</radialGradient>
<radialGradient id="paint8_radial_54_403" cx="0" cy="0" r="1" gradientUnits="userSpaceOnUse" gradientTransform="translate(84.6725 44.999) scale(5.57096 28.856)">
<stop stop-color="#BFDCC4"/>
<stop offset="1" stop-color="#469E57"/>
</radialGradient>
<radialGradient id="paint9_radial_54_403" cx="0" cy="0" r="1" gradientUnits="userSpaceOnUse" gradientTransform="translate(84.6688 44.9996) scale(0.910963 22.3428)">
<stop stop-color="#BFDCC4"/>
<stop offset="1" stop-color="#469E57"/>
</radialGradient>
<radialGradient id="paint10_radial_54_403" cx="0" cy="0" r="1" gradientUnits="userSpaceOnUse" gradientTransform="translate(84.6688 45.0148) scale(0.809423 21.7436)">
<stop stop-color="#BFDCC4"/>
<stop offset="1" stop-color="#469E57"/>
</radialGradient>
<radialGradient id="paint11_radial_54_403" cx="0" cy="0" r="1" gradientUnits="userSpaceOnUse" gradientTransform="translate(263.511 44.9997) scale(5.76841 29.881)">
<stop stop-color="#BFDCC4"/>
<stop offset="1" stop-color="#469E57"/>
</radialGradient>
<radialGradient id="paint12_radial_54_403" cx="0" cy="0" r="1" gradientUnits="userSpaceOnUse" gradientTransform="translate(263.516 44.9838) scale(5.57078 28.858)">
<stop stop-color="#BFDCC4"/>
<stop offset="1" stop-color="#469E57"/>
</radialGradient>
<radialGradient id="paint13_radial_54_403" cx="0" cy="0" r="1" gradientUnits="userSpaceOnUse" gradientTransform="translate(263.512 45.022) scale(0.910386 22.227)">
<stop stop-color="#BFDCC4"/>
<stop offset="1" stop-color="#469E57"/>
</radialGradient>
<radialGradient id="paint14_radial_54_403" cx="0" cy="0" r="1" gradientUnits="userSpaceOnUse" gradientTransform="translate(263.513 45.0148) scale(0.809423 21.7436)">
<stop stop-color="#BFDCC4"/>
<stop offset="1" stop-color="#469E57"/>
</radialGradient>
<radialGradient id="paint15_radial_54_403" cx="0" cy="0" r="1" gradientUnits="userSpaceOnUse" gradientTransform="translate(174.656 44.9997) scale(33 170.948)">
<stop stop-color="#BFDCC4"/>
<stop offset="1" stop-color="#469E57"/>
</radialGradient>
<linearGradient id="paint16_linear_54_403" x1="174.656" y1="14" x2="216.229" y2="24.4787" gradientUnits="userSpaceOnUse">
<stop stop-color="#70B47B"/>
<stop offset="1" stop-color="#37964B"/>
</linearGradient>
<clipPath id="clip0_54_403">
<rect width="349.33" height="90" fill="white"/>
</clipPath>
<clipPath id="clip1_54_403">
<rect width="320.769" height="90" fill="white" transform="translate(14.2812)"/>
</clipPath>
<clipPath id="clip2_54_403">
<rect x="157.656" y="28" width="34" height="34" rx="17" fill="white"/>
</clipPath>
<clipPath id="clip3_54_403">
<rect width="34" height="34" fill="white" transform="translate(157.656 28)"/>
</clipPath>
</defs>
</svg>
