<svg width="350" height="90" viewBox="0 0 350 90" fill="none" xmlns="http://www.w3.org/2000/svg">
<g clip-path="url(#clip0_54_613)">
<g clip-path="url(#clip1_54_613)">
<path d="M203.589 12.8702L213.479 21.4087L214.232 20.5352L204.342 11.9979L203.589 12.8702ZM213.479 21.4087C222.142 28.8879 232.261 32.8848 242.621 32.8848V31.731C232.569 31.731 222.71 27.8541 214.232 20.5352L213.479 21.4087ZM140.662 17.1302C158.262 -1.67864 184.687 -3.44864 203.589 12.8702L204.342 11.9979C184.95 -4.74441 157.823 -2.8971 139.819 16.3421L140.662 17.1302ZM108.815 32.8848C121.058 32.8848 131.195 27.246 140.662 17.1302L139.819 16.3421C130.495 26.3056 120.642 31.731 108.815 31.731V32.8848ZM16.5897 32.8848H108.815V31.731H16.5897V32.8848ZM242.621 32.8848H332.743V31.731H242.621V32.8848Z" fill="url(#paint0_radial_54_613)"/>
<path d="M14.285 44.4231H335.054H14.285Z" fill="#6DB27A"/>
<path d="M14.285 44.4231H335.054" stroke="url(#paint1_radial_54_613)" stroke-width="1.15385"/>
<path d="M164.863 2.30762V36.923V2.30762Z" fill="#6DB27A"/>
<path d="M164.863 2.30762V36.923" stroke="url(#paint2_radial_54_613)" stroke-width="1.15385"/>
<path d="M183.324 2.30762V36.923V2.30762Z" fill="#6DB27A"/>
<path d="M183.324 2.30762V36.923" stroke="url(#paint3_radial_54_613)" stroke-width="1.15385"/>
<path d="M183.324 86.5381V71.5381V86.5381Z" fill="#6DB27A"/>
<path d="M183.324 86.5381V71.5381" stroke="url(#paint4_radial_54_613)" stroke-width="1.15385"/>
<path d="M164.863 86.5381V71.5381V86.5381Z" fill="#6DB27A"/>
<path d="M164.863 86.5381V71.5381" stroke="url(#paint5_radial_54_613)" stroke-width="1.15385"/>
<path d="M144.479 76.1076L144.072 76.5172L144.082 76.5288L144.479 76.1076ZM134.795 66.4868L135.201 66.0772L135.184 66.0599L135.165 66.0449L134.795 66.4868ZM209.354 70.133L207.881 71.6607L208.71 72.4615L210.185 70.9338L209.354 70.133ZM144.885 75.6992L135.201 66.0772L134.388 66.8965L144.072 76.5172L144.885 75.6992ZM135.165 66.0449C126.447 58.7168 116.307 54.8076 105.932 54.8076L105.93 55.9615C116.006 55.9615 125.89 59.7553 134.423 66.9276L135.165 66.0449ZM207.881 71.6607C198.977 80.8915 188.485 86.8592 177.614 88.0499C166.761 89.2384 155.456 85.673 144.875 75.6888L144.082 76.5288C154.88 86.7172 166.513 90.4257 177.739 89.1968C188.947 87.9692 199.675 81.8295 208.71 72.4615L207.881 71.6607ZM242.961 54.8076C230.747 54.8076 218.915 60.2226 209.354 70.133L210.185 70.9338C219.56 61.2161 231.103 55.9615 242.961 55.9615V54.8076ZM335.054 54.8076H242.961V55.9615H335.054V54.8076ZM105.932 54.8076H14.285V55.9615H105.93L105.932 54.8076Z" fill="url(#paint6_radial_54_613)"/>
<mask id="mask0_54_613" style="mask-type:luminance" maskUnits="userSpaceOnUse" x="78" y="39" width="13" height="12">
<path d="M78.9022 39.2305H90.4406V50.7689H78.9022V39.2305Z" fill="white"/>
</mask>
<g mask="url(#mask0_54_613)">
<path d="M86.88 50.3295C87.5885 50.0456 88.2336 49.6239 88.7779 49.0889C89.3223 48.5539 89.7551 47.9162 90.0512 47.2127C90.3473 46.5092 90.5009 45.754 90.5031 44.9908C90.5053 44.2275 90.356 43.4714 90.0639 42.7663C89.7717 42.0611 89.3426 41.421 88.8013 40.8829C88.26 40.3448 87.6174 39.9194 86.9105 39.6314C86.2037 39.3435 85.4467 39.1986 84.6835 39.2053C83.9203 39.212 83.166 39.37 82.4642 39.6703C81.0682 40.2677 79.9639 41.3914 79.391 42.7977C78.8181 44.204 78.8227 45.7794 79.4039 47.1823C79.9851 48.5852 81.0959 49.7024 82.4955 50.2916C83.8951 50.8808 85.4705 50.8944 86.88 50.3295Z" fill="url(#paint7_radial_54_613)"/>
<path d="M90.0981 46.2799C90.2662 45.5679 90.2925 44.8297 90.1753 44.1076C90.0582 43.3854 89.7999 42.6934 89.4153 42.0711C89.0307 41.4487 88.5273 40.9082 87.9338 40.4804C87.3403 40.0526 86.6684 39.7459 85.9564 39.5778C85.2444 39.4097 84.5062 39.3835 83.7841 39.5006C83.0619 39.6178 82.3699 39.876 81.7475 40.2606C81.1252 40.6452 80.5847 41.1486 80.1569 41.7421C79.7291 42.3356 79.4224 43.0075 79.2543 43.7195C78.9149 45.1574 79.1606 46.6711 79.9373 47.9278C80.7141 49.1845 81.9582 50.0811 83.396 50.4205C84.8338 50.7599 86.3476 50.5142 87.6043 49.7374C88.8609 48.9607 89.7576 47.7166 90.097 46.2788L90.0981 46.2799Z" fill="url(#paint8_radial_54_613)"/>
<path d="M84.6731 49.3127C84.4313 49.3127 84.1995 49.2166 84.0285 49.0457C83.8576 48.8747 83.7615 48.6429 83.7615 48.4011V41.5969C83.7618 41.3554 83.858 41.1238 84.0289 40.9531C84.1998 40.7824 84.4315 40.6865 84.6731 40.6865C84.9144 40.6868 85.1458 40.7828 85.3165 40.9535C85.4871 41.1242 85.5832 41.3556 85.5835 41.5969V48.4023C85.5832 48.6438 85.487 48.8754 85.3161 49.0461C85.1452 49.2168 84.9146 49.3127 84.6731 49.3127Z" fill="url(#paint9_radial_54_613)"/>
<path d="M84.6731 49.211C84.4585 49.211 84.2526 49.1259 84.1007 48.9742C83.9489 48.8226 83.8634 48.6168 83.8631 48.4022V41.5968C83.871 41.3874 83.9597 41.1893 84.1107 41.0439C84.2616 40.8986 84.463 40.8174 84.6725 40.8174C84.8821 40.8174 85.0834 40.8986 85.2344 41.0439C85.3853 41.1893 85.474 41.3874 85.4819 41.5968V48.4022C85.4819 48.617 85.3966 48.8231 85.2447 48.975C85.0928 49.1269 84.8868 49.2122 84.6719 49.2122L84.6731 49.211Z" fill="url(#paint10_radial_54_613)"/>
</g>
<mask id="mask1_54_613" style="mask-type:luminance" maskUnits="userSpaceOnUse" x="257" y="39" width="13" height="12">
<path d="M257.746 39.2305H269.284V50.7689H257.746V39.2305Z" fill="white"/>
</mask>
<g mask="url(#mask1_54_613)">
<path d="M265.722 50.3292C266.422 50.0394 267.058 49.6145 267.593 49.0788C268.129 48.5432 268.554 47.9072 268.844 47.2073C269.134 46.5074 269.283 45.7572 269.283 44.9997C269.283 44.2421 269.133 43.492 268.843 42.7922C268.553 42.0924 268.128 41.4565 267.593 40.9209C267.057 40.3853 266.421 39.9604 265.721 39.6705C265.022 39.3807 264.271 39.2315 263.514 39.2314C262.756 39.2314 262.006 39.3806 261.307 39.6705C260.607 39.9604 259.971 40.3852 259.435 40.9208C258.9 41.4565 258.475 42.0923 258.185 42.7921C257.895 43.492 257.746 44.242 257.746 44.9995C257.746 45.757 257.895 46.507 258.185 47.2068C258.77 48.6202 259.893 49.7432 261.307 50.3287C262.72 50.9142 264.308 50.9144 265.722 50.3292Z" fill="url(#paint11_radial_54_613)"/>
<path d="M268.938 46.2792C269.108 45.5663 269.136 44.8268 269.02 44.1031C268.905 43.3793 268.647 42.6855 268.262 42.0615C267.878 41.4375 267.374 40.8955 266.78 40.4665C266.185 40.0376 265.512 39.7302 264.799 39.5619C264.085 39.3936 263.346 39.3678 262.622 39.4858C261.899 39.6039 261.206 39.8636 260.583 40.2499C259.96 40.6363 259.42 41.1418 258.993 41.7375C258.566 42.3331 258.26 43.0072 258.094 43.7211C257.76 45.1573 258.009 46.6674 258.786 47.9205C259.563 49.1735 260.806 50.0672 262.241 50.4058C263.676 50.7444 265.187 50.5001 266.442 49.7266C267.697 48.953 268.595 47.7133 268.938 46.2792Z" fill="url(#paint12_radial_54_613)"/>
<path d="M263.516 49.3127C263.274 49.3124 263.042 49.2162 262.872 49.0453C262.701 48.8744 262.605 48.6427 262.605 48.4011V41.5969C262.617 41.3634 262.718 41.1433 262.887 40.9822C263.057 40.8211 263.282 40.7312 263.516 40.7312C263.749 40.7312 263.974 40.8211 264.144 40.9822C264.313 41.1433 264.414 41.3634 264.426 41.5969V48.4023C264.426 48.6436 264.33 48.875 264.159 49.0457C263.988 49.2163 263.757 49.3124 263.516 49.3127Z" fill="url(#paint13_radial_54_613)"/>
<path d="M263.516 49.211C263.301 49.2107 263.096 49.1254 262.944 48.9738C262.792 48.8222 262.707 48.6166 262.707 48.4022V41.5968C262.715 41.3874 262.803 41.1893 262.954 41.0439C263.105 40.8986 263.307 40.8174 263.516 40.8174C263.726 40.8174 263.927 40.8986 264.078 41.0439C264.229 41.1893 264.318 41.3874 264.326 41.5968V48.4022C264.326 48.617 264.24 48.8231 264.088 48.975C263.936 49.1269 263.73 49.211 263.516 49.211Z" fill="url(#paint14_radial_54_613)"/>
</g>
<g filter="url(#filter0_f_54_613)">
<rect x="-53.9963" y="13" width="128" height="64" fill="#FCFAFE"/>
</g>
<g filter="url(#filter1_f_54_613)">
<rect x="288.004" y="13" width="128" height="64" fill="#FCFAFE"/>
</g>
</g>
</g>
<rect x="141.66" y="12" width="66" height="66" rx="33" fill="url(#paint15_radial_54_613)"/>
<rect x="143.66" y="14" width="62" height="62" rx="31" fill="url(#paint16_linear_54_613)"/>
<path fill-rule="evenodd" clip-rule="evenodd" d="M162.191 49.3541C162.302 51.1354 162.798 52.8713 163.646 54.4418C164.494 56.0123 165.673 57.3799 167.102 58.4499C167.236 58.5501 167.398 58.6041 167.565 58.6041L181.438 58.6025C181.605 58.6025 181.767 58.5478 181.901 58.4476C184.703 56.3409 186.581 53.0687 186.809 49.3541H189.917C190.121 49.3541 190.317 49.2729 190.462 49.1283C190.606 48.9838 190.688 48.7877 190.688 48.5833C190.688 39.6493 183.434 32.3958 174.5 32.3958C165.566 32.3958 158.312 39.6493 158.312 48.5833C158.312 48.7877 158.394 48.9838 158.538 49.1283C158.683 49.2729 158.879 49.3541 159.083 49.3541H162.191ZM175.271 37.8186V39.3333C175.271 39.5377 175.19 39.7338 175.045 39.8783C174.901 40.0229 174.704 40.1041 174.5 40.1041C174.296 40.1041 174.099 40.0229 173.955 39.8783C173.81 39.7338 173.729 39.5377 173.729 39.3333V37.8186C172.359 37.9147 171.02 38.2732 169.785 38.8746L170.543 40.1873C170.643 40.3643 170.67 40.5738 170.616 40.7703C170.563 40.9667 170.434 41.1341 170.258 41.2359C170.082 41.3377 169.872 41.3656 169.675 41.3136C169.479 41.2615 169.31 41.1338 169.207 40.9582L168.451 39.6478C167.315 40.4186 166.335 41.3979 165.564 42.5338L166.875 43.2907C167.051 43.3937 167.178 43.5619 167.23 43.7587C167.282 43.9555 167.254 44.1648 167.153 44.3411C167.051 44.5174 166.883 44.6463 166.687 44.6996C166.491 44.7529 166.281 44.7264 166.104 44.6258L164.791 43.8681C164.19 45.1031 163.831 46.4421 163.735 47.8124H165.25C165.454 47.8124 165.651 47.8936 165.795 48.0382C165.94 48.1827 166.021 48.3788 166.021 48.5833C166.021 48.7877 165.94 48.9838 165.795 49.1283C165.651 49.2729 165.454 49.3541 165.25 49.3541H163.735C163.831 50.7245 164.19 52.0636 164.792 53.2984L166.104 52.5407C166.281 52.4401 166.491 52.4136 166.687 52.4669C166.883 52.5202 167.051 52.6491 167.153 52.8254C167.254 53.0017 167.282 53.211 167.23 53.4078C167.178 53.6046 167.051 53.7728 166.875 53.8758L165.564 54.632C166.19 55.5533 166.953 56.373 167.827 57.0624L181.175 57.0609C182.048 56.3718 182.81 55.5529 183.435 54.6328L182.125 53.8758C181.949 53.7728 181.822 53.6046 181.77 53.4078C181.718 53.211 181.746 53.0017 181.847 52.8254C181.949 52.6491 182.117 52.5202 182.313 52.4669C182.509 52.4136 182.719 52.4401 182.896 52.5407L184.208 53.2984C184.81 52.0636 185.169 50.7245 185.265 49.3541H183.75C183.546 49.3541 183.349 49.2729 183.205 49.1283C183.06 48.9838 182.979 48.7877 182.979 48.5833C182.979 48.3788 183.06 48.1827 183.205 48.0382C183.349 47.8936 183.546 47.8124 183.75 47.8124H185.265C185.169 46.4421 184.81 45.1031 184.209 43.8681L182.896 44.6258C182.719 44.7264 182.509 44.7529 182.313 44.6996C182.117 44.6463 181.949 44.5174 181.847 44.3411C181.746 44.1648 181.718 43.9555 181.77 43.7587C181.822 43.5619 181.949 43.3937 182.125 43.2907L183.435 42.5338C182.665 41.3979 181.685 40.4186 180.549 39.6478L179.793 40.9582C179.69 41.1338 179.521 41.2615 179.325 41.3136C179.128 41.3656 178.918 41.3377 178.742 41.2359C178.566 41.1341 178.437 40.9667 178.384 40.7703C178.33 40.5738 178.357 40.3643 178.457 40.1873L179.215 38.8746C177.98 38.2732 176.641 37.9147 175.271 37.8186ZM178.743 43.394C178.789 43.2294 178.779 43.0542 178.714 42.8961C178.649 42.738 178.534 42.6058 178.386 42.5204C178.238 42.435 178.066 42.4012 177.897 42.4243C177.727 42.4473 177.57 42.526 177.451 42.6478C177.451 42.6478 173.036 47.1603 171.727 49.4296C171.439 49.9595 171.37 50.5807 171.534 51.1609C171.697 51.7411 172.081 52.2344 172.603 52.5358C173.125 52.8372 173.745 52.923 174.329 52.7747C174.913 52.6265 175.417 52.256 175.732 51.7421C177.042 49.4728 178.743 43.394 178.743 43.394ZM176.315 46.1066C175.754 47.8456 175.03 49.8744 174.397 50.9713C174.294 51.1469 174.126 51.2746 173.929 51.3267C173.732 51.3787 173.523 51.3508 173.346 51.249C173.17 51.1472 173.041 50.9799 172.988 50.7834C172.934 50.587 172.961 50.3774 173.062 50.2005C173.694 49.1036 175.09 47.4625 176.315 46.1066ZM162.191 47.8124H159.874C160.276 40.0871 166.675 33.9374 174.5 33.9374C182.325 33.9374 188.724 40.0871 189.126 47.8124H186.809C186.411 41.3636 181.048 36.2499 174.5 36.2499C167.952 36.2499 162.588 41.3644 162.191 47.8124Z" fill="white"/>
<defs>
<filter id="filter0_f_54_613" x="-83.8963" y="-16.9" width="187.8" height="123.8" filterUnits="userSpaceOnUse" color-interpolation-filters="sRGB">
<feFlood flood-opacity="0" result="BackgroundImageFix"/>
<feBlend mode="normal" in="SourceGraphic" in2="BackgroundImageFix" result="shape"/>
<feGaussianBlur stdDeviation="14.95" result="effect1_foregroundBlur_54_613"/>
</filter>
<filter id="filter1_f_54_613" x="258.104" y="-16.9" width="187.8" height="123.8" filterUnits="userSpaceOnUse" color-interpolation-filters="sRGB">
<feFlood flood-opacity="0" result="BackgroundImageFix"/>
<feBlend mode="normal" in="SourceGraphic" in2="BackgroundImageFix" result="shape"/>
<feGaussianBlur stdDeviation="14.95" result="effect1_foregroundBlur_54_613"/>
</filter>
<radialGradient id="paint0_radial_54_613" cx="0" cy="0" r="1" gradientUnits="userSpaceOnUse" gradientTransform="translate(174.667 16.7308) scale(158.077 83.6809)">
<stop stop-color="#BFDCC4"/>
<stop offset="1" stop-color="#469E57"/>
</radialGradient>
<radialGradient id="paint1_radial_54_613" cx="0" cy="0" r="1" gradientUnits="userSpaceOnUse" gradientTransform="translate(-nan -nan) rotate(-nan) scale(-nan -nan)">
<stop stop-color="#70B47B"/>
<stop offset="1" stop-color="#5EAB6C" stop-opacity="0.56"/>
</radialGradient>
<radialGradient id="paint2_radial_54_613" cx="0" cy="0" r="1" gradientUnits="userSpaceOnUse" gradientTransform="translate(-nan -nan) rotate(-nan) scale(-nan -nan)">
<stop stop-color="#70B47B"/>
<stop offset="1" stop-color="#5EAB6C" stop-opacity="0.56"/>
</radialGradient>
<radialGradient id="paint3_radial_54_613" cx="0" cy="0" r="1" gradientUnits="userSpaceOnUse" gradientTransform="translate(-nan -nan) rotate(-nan) scale(-nan -nan)">
<stop stop-color="#70B47B"/>
<stop offset="1" stop-color="#5EAB6C" stop-opacity="0.56"/>
</radialGradient>
<radialGradient id="paint4_radial_54_613" cx="0" cy="0" r="1" gradientUnits="userSpaceOnUse" gradientTransform="translate(-nan -nan) rotate(-nan) scale(-nan -nan)">
<stop stop-color="#70B47B"/>
<stop offset="1" stop-color="#5EAB6C" stop-opacity="0.56"/>
</radialGradient>
<radialGradient id="paint5_radial_54_613" cx="0" cy="0" r="1" gradientUnits="userSpaceOnUse" gradientTransform="translate(-nan -nan) rotate(-nan) scale(-nan -nan)">
<stop stop-color="#70B47B"/>
<stop offset="1" stop-color="#5EAB6C" stop-opacity="0.56"/>
</radialGradient>
<radialGradient id="paint6_radial_54_613" cx="0" cy="0" r="1" gradientUnits="userSpaceOnUse" gradientTransform="translate(174.67 72.1153) scale(160.385 89.6589)">
<stop stop-color="#BFDCC4"/>
<stop offset="1" stop-color="#469E57"/>
</radialGradient>
<radialGradient id="paint7_radial_54_613" cx="0" cy="0" r="1" gradientUnits="userSpaceOnUse" gradientTransform="translate(84.7339 44.9743) scale(5.76923 29.8861)">
<stop stop-color="#BFDCC4"/>
<stop offset="1" stop-color="#469E57"/>
</radialGradient>
<radialGradient id="paint8_radial_54_613" cx="0" cy="0" r="1" gradientUnits="userSpaceOnUse" gradientTransform="translate(84.6762 44.999) scale(5.57096 28.856)">
<stop stop-color="#BFDCC4"/>
<stop offset="1" stop-color="#469E57"/>
</radialGradient>
<radialGradient id="paint9_radial_54_613" cx="0" cy="0" r="1" gradientUnits="userSpaceOnUse" gradientTransform="translate(84.6725 44.9996) scale(0.910963 22.3428)">
<stop stop-color="#BFDCC4"/>
<stop offset="1" stop-color="#469E57"/>
</radialGradient>
<radialGradient id="paint10_radial_54_613" cx="0" cy="0" r="1" gradientUnits="userSpaceOnUse" gradientTransform="translate(84.6725 45.0148) scale(0.809423 21.7436)">
<stop stop-color="#BFDCC4"/>
<stop offset="1" stop-color="#469E57"/>
</radialGradient>
<radialGradient id="paint11_radial_54_613" cx="0" cy="0" r="1" gradientUnits="userSpaceOnUse" gradientTransform="translate(263.514 44.9997) scale(5.76841 29.881)">
<stop stop-color="#BFDCC4"/>
<stop offset="1" stop-color="#469E57"/>
</radialGradient>
<radialGradient id="paint12_radial_54_613" cx="0" cy="0" r="1" gradientUnits="userSpaceOnUse" gradientTransform="translate(263.52 44.9838) scale(5.57078 28.858)">
<stop stop-color="#BFDCC4"/>
<stop offset="1" stop-color="#469E57"/>
</radialGradient>
<radialGradient id="paint13_radial_54_613" cx="0" cy="0" r="1" gradientUnits="userSpaceOnUse" gradientTransform="translate(263.516 45.0219) scale(0.910386 22.227)">
<stop stop-color="#BFDCC4"/>
<stop offset="1" stop-color="#469E57"/>
</radialGradient>
<radialGradient id="paint14_radial_54_613" cx="0" cy="0" r="1" gradientUnits="userSpaceOnUse" gradientTransform="translate(263.516 45.0148) scale(0.809423 21.7436)">
<stop stop-color="#BFDCC4"/>
<stop offset="1" stop-color="#469E57"/>
</radialGradient>
<radialGradient id="paint15_radial_54_613" cx="0" cy="0" r="1" gradientUnits="userSpaceOnUse" gradientTransform="translate(174.66 44.9997) scale(33 170.948)">
<stop stop-color="#BFDCC4"/>
<stop offset="1" stop-color="#469E57"/>
</radialGradient>
<linearGradient id="paint16_linear_54_613" x1="174.66" y1="14" x2="216.233" y2="24.4787" gradientUnits="userSpaceOnUse">
<stop stop-color="#70B47B"/>
<stop offset="1" stop-color="#37964B"/>
</linearGradient>
<clipPath id="clip0_54_613">
<rect width="349.33" height="90" fill="white" transform="translate(0.00372314)"/>
</clipPath>
<clipPath id="clip1_54_613">
<rect width="320.769" height="90" fill="white" transform="translate(14.285)"/>
</clipPath>
</defs>
</svg>
