<svg width="24" height="23" viewBox="0 0 24 23" fill="none" xmlns="http://www.w3.org/2000/svg">
<mask id="mask0_54_884" style="mask-type:luminance" maskUnits="userSpaceOnUse" x="0" y="0" width="24" height="23">
<path d="M0.921875 0.475464H23.7971V22.6957H0.921875V0.475464Z" fill="white"/>
</mask>
<g mask="url(#mask0_54_884)">
<path d="M17.2742 11.6659C17.6442 11.5642 18.0783 11.5392 18.4641 11.6992C18.7582 11.8183 19.0386 11.9686 19.3007 12.1475C19.5723 12.3266 19.8156 12.5374 20.0539 12.7833C20.5449 13.307 20.9137 13.9331 21.1338 14.6164C21.3839 15.4001 21.4651 16.2279 21.3721 17.0453C21.2645 17.9699 20.9727 18.8635 20.5139 19.6734C20.2269 20.1701 19.7853 20.5593 19.2565 20.7816C19.1345 20.8297 19.0088 20.8678 18.8807 20.8958C18.7608 20.9234 18.638 20.9374 18.5149 20.9374C18.2904 20.9433 18.0678 20.8941 17.8667 20.7941C17.4892 20.5941 17.3167 20.2425 17.2967 19.8634C17.2767 19.4809 17.4009 19.0676 17.655 18.691C17.9683 18.2185 18.1841 17.6994 18.2958 17.177C18.4048 16.6745 18.4167 16.1558 18.3308 15.6488C18.287 15.4101 18.2218 15.1758 18.1358 14.9489C18.0938 14.8394 18.0471 14.7318 17.9958 14.6264C17.7389 14.1182 17.3723 13.6734 16.9226 13.324C16.6326 13.0932 16.4443 12.8499 16.3776 12.6374C16.3043 12.4208 16.3526 12.2291 16.5418 12.0483C16.6361 11.9595 16.7435 11.8856 16.8601 11.8292C16.9919 11.7603 17.1308 11.705 17.2742 11.6659ZM14.7436 15.8863C15.0144 16.1529 15.2536 16.5145 15.3103 16.932C15.3998 17.5732 15.351 18.2261 15.1669 18.8468C14.9595 19.5348 14.6007 20.1677 14.117 20.6991C13.5647 21.3052 12.8906 21.7879 12.1389 22.1157C11.2858 22.4903 10.3651 22.6865 9.43334 22.6923C8.85694 22.6927 8.29634 22.5039 7.83767 22.1548C7.41104 21.8215 7.14857 21.3816 7.13274 20.9549C7.11774 20.5291 7.33605 20.2042 7.65602 19.9967C7.81434 19.895 8.00182 19.8167 8.20346 19.7709C8.41579 19.7234 8.63388 19.7072 8.8509 19.7226C9.40303 19.7594 9.95714 19.6915 10.4841 19.5226C10.7374 19.4434 10.9782 19.3326 11.2023 19.2143C11.3148 19.1493 11.4231 19.0818 11.5265 19.0118C11.8293 18.8043 12.1006 18.5542 12.3322 18.2694C12.4792 18.0869 12.6091 17.8914 12.7205 17.6853C12.9388 17.277 13.073 16.8428 13.1363 16.4062C13.1582 16.2405 13.2007 16.0781 13.263 15.9229C13.2993 15.8293 13.3472 15.7406 13.4054 15.6588C13.4238 15.6338 13.4404 15.6096 13.4604 15.5888C13.6129 15.4247 13.7987 15.3622 14.0512 15.438C14.1079 15.4538 14.1654 15.4772 14.2229 15.5072C14.2812 15.5355 14.3387 15.5655 14.3978 15.6046C14.5145 15.6796 14.6345 15.7771 14.7436 15.8854V15.8863ZM9.82997 15.8063C9.73414 16.1729 9.53916 16.5604 9.2067 16.8195C8.69434 17.2154 8.10394 17.4982 7.47437 17.6494C6.77536 17.8126 6.04892 17.8191 5.34708 17.6686C4.54378 17.4949 3.7864 17.153 3.1248 16.6654C2.41488 16.1513 1.77494 15.4488 1.27416 14.6031C0.950147 14.0458 0.844726 13.388 0.978352 12.7574C1.01982 12.5741 1.08715 12.3976 1.17833 12.2333C1.29499 12.0275 1.4533 11.8608 1.63079 11.7467C1.98825 11.5217 2.37905 11.5484 2.72068 11.7192C2.89316 11.805 3.04981 11.9283 3.18896 12.0792C3.26146 12.155 3.32895 12.2375 3.38894 12.3275C3.44977 12.4166 3.50393 12.5133 3.55726 12.6158C3.8064 13.1241 4.14637 13.574 4.543 13.9306C4.92433 14.2754 5.3677 14.5446 5.84953 14.7239C6.08617 14.8056 6.31532 14.8689 6.55279 14.9039C6.78527 14.9422 7.02275 14.9539 7.25106 14.9472C7.70295 14.93 8.14842 14.8344 8.56759 14.6647C8.73758 14.5972 8.90506 14.5514 9.05088 14.5339C9.1217 14.5256 9.1942 14.5172 9.25919 14.5189C9.32418 14.5189 9.38168 14.5289 9.43834 14.5389C9.66165 14.5889 9.80914 14.7222 9.86913 14.9797C9.92412 15.2097 9.90829 15.4997 9.82747 15.8046L9.82997 15.8063ZM7.44104 11.5026C7.07024 11.605 6.63695 11.63 6.25116 11.4701C5.95707 11.351 5.67661 11.2007 5.41458 11.0218C5.14095 10.8378 4.88836 10.6243 4.66132 10.3852C4.17032 9.86141 3.80151 9.23535 3.58143 8.55201C3.33094 7.76837 3.24944 6.94053 3.34228 6.12309C3.45002 5.19881 3.74184 4.30548 4.20053 3.49585C4.48768 2.99898 4.92958 2.60975 5.45874 2.38763C5.58372 2.33763 5.71121 2.30014 5.8337 2.27264C5.95394 2.24495 6.07694 2.23097 6.20033 2.23098C6.44031 2.23098 6.65862 2.27514 6.8486 2.37513C7.22606 2.57511 7.39771 2.92591 7.41854 3.30504C7.43854 3.68833 7.31355 4.10079 7.06024 4.47825C6.75369 4.93802 6.53633 5.45134 6.41947 5.99144C6.31035 6.4942 6.29847 7.01321 6.38448 7.52045C6.42821 7.75917 6.49347 7.99343 6.57946 8.22038C6.62195 8.3312 6.66862 8.43869 6.71945 8.54285C6.97641 9.05104 7.34297 9.49586 7.79267 9.84522C8.08264 10.0752 8.27096 10.3185 8.33762 10.5318C8.41094 10.7485 8.36261 10.9393 8.17347 11.1201C8.07902 11.209 7.97172 11.2832 7.85516 11.3401C7.72329 11.4086 7.58446 11.4636 7.44104 11.5026ZM9.97079 7.28297C9.69998 7.01633 9.46167 6.6547 9.40418 6.23724C9.38235 6.08171 9.369 5.92511 9.36418 5.76812C9.34606 5.27946 9.40798 4.79111 9.54749 4.32244C9.755 3.6347 10.1137 3.00209 10.5974 2.47095C11.1497 1.86454 11.8237 1.38156 12.5755 1.0536C13.4284 0.677844 14.3492 0.480757 15.2811 0.474487C15.8576 0.474278 16.4182 0.663392 16.8768 1.01277C17.3034 1.34607 17.5659 1.78602 17.5817 2.21265C17.5967 2.6376 17.3784 2.96257 17.0592 3.17088C16.9009 3.27254 16.7126 3.35003 16.511 3.3967C16.311 3.44002 16.091 3.46252 15.8635 3.44419C15.3114 3.40727 14.7573 3.47513 14.2304 3.64417C13.982 3.72497 13.7415 3.82845 13.5121 3.95331C13.4015 4.01641 13.2934 4.08367 13.188 4.15495C13.0855 4.22328 12.9855 4.30494 12.8905 4.38243C12.7051 4.53789 12.5349 4.7106 12.3822 4.89821C12.2355 5.08054 12.1055 5.27576 11.9939 5.48149C11.7818 5.88062 11.6411 6.31376 11.5781 6.76136C11.5562 6.92683 11.5136 7.0889 11.4515 7.24381C11.4152 7.33772 11.3673 7.42673 11.309 7.50878C11.2907 7.53378 11.274 7.55711 11.2548 7.57878C11.1015 7.74293 10.9149 7.80625 10.6632 7.72876C10.541 7.68833 10.4245 7.63232 10.3166 7.56211C10.1925 7.4802 10.0767 7.38727 9.97079 7.28297ZM14.8845 7.3638C14.9803 6.99717 15.1753 6.60971 15.5077 6.35057C16.0204 5.95462 16.611 5.67177 17.2409 5.52065C17.9396 5.35765 18.6658 5.35111 19.3673 5.50148C20.1706 5.6752 20.928 6.01711 21.5896 6.50472C22.2996 7.01883 22.9403 7.72126 23.4411 8.56701C23.7648 9.12439 23.87 9.78215 23.7361 10.4127C23.6926 10.5956 23.6247 10.7719 23.5344 10.9368C23.4178 11.1426 23.2611 11.3092 23.0828 11.4234C22.7245 11.6484 22.3346 11.6217 21.9929 11.4509C21.8162 11.3601 21.6572 11.2382 21.5238 11.0909C21.4505 11.0137 21.3836 10.9307 21.3238 10.8426C21.2626 10.7498 21.2066 10.6535 21.1563 10.5543C20.9144 10.0571 20.5795 9.61074 20.1698 9.23944C19.7886 8.89449 19.3451 8.62528 18.8632 8.44619C18.6352 8.36445 18.4 8.30419 18.1608 8.26621C17.9297 8.22928 17.6956 8.21477 17.4617 8.22288C17.0104 8.24 16.5655 8.33529 16.1468 8.50452C15.9918 8.5682 15.8295 8.61242 15.6636 8.63617C15.5945 8.64587 15.5249 8.65089 15.4552 8.65117C15.3886 8.65117 15.3311 8.64117 15.2753 8.63034C15.0519 8.58034 14.9045 8.44702 14.8445 8.19038C14.7895 7.96041 14.8053 7.67043 14.8861 7.36547L14.8845 7.3638Z" fill="#5B5E71"/>
</g>
</svg>
