<svg width="25" height="25" viewBox="0 0 25 25" fill="none" xmlns="http://www.w3.org/2000/svg">
<mask id="mask0_54_895" style="mask-type:luminance" maskUnits="userSpaceOnUse" x="0" y="0" width="25" height="25">
<path d="M0.609375 0.735352H24.3292V24.4356H0.609375V0.735352Z" fill="white"/>
</mask>
<g mask="url(#mask0_54_895)">
<path d="M16.1671 24.3696C16.1217 24.4034 16.0551 24.3625 16.0542 24.3056C15.8995 16.37 9.79117 9.39151 0.912553 9.02179C0.797016 9.01645 0.726804 8.87336 0.809458 8.79071C3.43838 6.16179 6.0673 3.53287 8.69 0.896834C8.83931 0.747524 8.96907 0.701309 9.17082 0.754634C16.0888 2.53747 21.0339 6.56528 23.5783 13.3331C23.8983 14.1792 24.0858 15.0768 24.3204 15.9549C24.3471 16.0527 24.3071 16.2216 24.236 16.2935C21.5496 18.9891 18.8606 21.6811 16.1671 24.3696Z" fill="#5B5E71"/>
<path d="M0.726562 12.5847C1.37002 11.9075 2.01525 11.2116 2.6907 10.5406C2.78846 10.4429 3.03642 10.45 3.19907 10.4828C4.65662 10.7557 6.03595 11.2765 7.33797 11.9857C11.2938 14.1658 13.6694 17.504 14.6 21.9033C14.6524 22.1504 14.6062 22.3192 14.424 22.5076C13.7992 23.12 13.1939 23.7581 12.5754 24.3891C12.5629 24.4016 12.5434 24.4087 12.4981 24.4336C12.3612 21.2136 11.3596 18.3501 9.02304 16.0722C6.69985 13.8077 3.86296 12.7474 0.726562 12.5847Z" fill="#5B5E71"/>
<path d="M8.90586 24.4227C8.73699 19.0671 4.44166 16.2364 0.609375 16.1573C0.713359 16.0471 0.778237 15.9627 0.856447 15.8844C1.3897 15.3645 1.93628 14.8499 2.45709 14.3096C2.67216 14.0821 2.87391 14.0296 3.16631 14.1141C7.02526 15.2019 9.60264 17.6157 10.8522 21.4489C11.0477 22.0604 11.0077 22.4834 10.4878 22.9065C9.92792 23.3553 9.43911 23.9019 8.90586 24.4227Z" fill="#5B5E71"/>
<path d="M5.34337 24.37C5.18073 21.6433 3.16949 19.8862 0.625 19.7174C0.6961 19.6329 0.755646 19.561 0.814304 19.4952C1.37422 18.9495 1.93324 18.4091 2.48604 17.8563C2.62913 17.7061 2.75267 17.6875 2.94197 17.7586C5.11585 18.546 6.5343 20.0755 7.33417 22.2094C7.36706 22.2876 7.35373 22.437 7.30218 22.4894C6.6445 23.1275 5.98683 23.7514 5.34337 24.37Z" fill="#5B5E71"/>
</g>
</svg>
