<svg width="29" height="27" viewBox="0 0 29 27" fill="none" xmlns="http://www.w3.org/2000/svg">
<mask id="mask0_54_858" style="mask-type:luminance" maskUnits="userSpaceOnUse" x="0" y="0" width="29" height="27">
<path d="M0.445312 0.256836H28.2773V26.9238H0.445312V0.256836Z" fill="white"/>
</mask>
<g mask="url(#mask0_54_858)">
<path d="M22.7818 7.92483C21.3648 7.92483 20.0798 8.46483 19.1038 9.34083C18.648 10.0715 18.0266 10.6847 17.2899 11.1308C16.5532 11.5768 15.7219 11.8431 14.8632 11.9083C14.0044 11.9734 13.1424 11.8355 12.3469 11.5057C11.5513 11.1759 10.8446 10.6634 10.2838 10.0098C10.278 10.0152 10.2732 10.0217 10.2698 10.0288C9.75676 9.37412 9.10144 8.84479 8.35348 8.48095C7.60552 8.1171 6.78454 7.92829 5.95278 7.92883C4.51173 7.9563 3.13897 8.54805 2.12956 9.57689C1.12016 10.6057 0.554688 11.9895 0.554688 13.4308C0.554688 14.8721 1.12016 16.2559 2.12956 17.2848C3.13897 18.3136 4.51173 18.9054 5.95278 18.9328C6.7481 18.9336 7.53404 18.761 8.25591 18.4272C8.97778 18.0934 9.61826 17.6063 10.1328 16.9998C10.1568 17.0328 10.1798 17.0658 10.2088 17.0998C10.7252 16.4741 11.3735 15.9704 12.1075 15.6248C12.8414 15.2792 13.6427 15.1002 14.454 15.1007C15.2652 15.1012 16.0663 15.2811 16.7998 15.6276C17.5334 15.9741 18.1811 16.4785 18.6968 17.1048C19.2109 17.6796 19.8405 18.1394 20.5444 18.4544C21.2482 18.7694 22.0106 18.9324 22.7818 18.9328C24.2228 18.9054 25.5956 18.3136 26.605 17.2848C27.6144 16.2559 28.1799 14.8721 28.1799 13.4308C28.1799 11.9895 27.6144 10.6057 26.605 9.57689C25.5956 8.54805 24.2228 7.9563 22.7818 7.92883V7.92383V7.92483Z" fill="#5B5E71"/>
<path d="M14.3672 8.25586C15.4281 8.25586 16.4455 7.83443 17.1956 7.08429C17.9458 6.33414 18.3672 5.31673 18.3672 4.25586C18.3672 3.19499 17.9458 2.17758 17.1956 1.42743C16.4455 0.677287 15.4281 0.255859 14.3672 0.255859C13.3063 0.255859 12.2889 0.677287 11.5388 1.42743C10.7886 2.17758 10.3672 3.19499 10.3672 4.25586C10.3672 5.31673 10.7886 6.33414 11.5388 7.08429C12.2889 7.83443 13.3063 8.25586 14.3672 8.25586Z" fill="#72758D"/>
<path d="M14.3672 26.9229C15.4281 26.9229 16.4455 26.5014 17.1956 25.7513C17.9458 25.0011 18.3672 23.9837 18.3672 22.9229C18.3672 21.862 17.9458 20.8446 17.1956 20.0944C16.4455 19.3443 15.4281 18.9229 14.3672 18.9229C13.3063 18.9229 12.2889 19.3443 11.5388 20.0944C10.7886 20.8446 10.3672 21.862 10.3672 22.9229C10.3672 23.9837 10.7886 25.0011 11.5388 25.7513C12.2889 26.5014 13.3063 26.9229 14.3672 26.9229Z" fill="#66697F"/>
</g>
</svg>
