<svg width="19" height="18" viewBox="0 0 19 18" fill="none" xmlns="http://www.w3.org/2000/svg">
<g clip-path="url(#clip0_54_1471)">
<mask id="mask0_54_1471" style="mask-type:luminance" maskUnits="userSpaceOnUse" x="0" y="0" width="19" height="18">
<path d="M0.589966 0H18.59V18H0.589966V0Z" fill="white"/>
</mask>
<g mask="url(#mask0_54_1471)">
<g opacity="0.6">
<path d="M17.84 2.25804C17.84 2.25804 16.327 3.15204 15.485 3.40504C15.0333 2.88567 14.433 2.51756 13.7652 2.35049C13.0975 2.18341 12.3946 2.22544 11.7515 2.47088C11.1085 2.71633 10.5563 3.15334 10.1697 3.72283C9.78311 4.29232 9.58074 4.96679 9.58997 5.65504V6.40504C8.27199 6.43927 6.966 6.14703 5.7883 5.55435C4.6106 4.96166 3.59776 4.08693 2.83997 3.00804C2.83997 3.00804 -0.160034 9.75804 6.58997 12.758C5.04536 13.8065 3.20533 14.3322 1.33997 14.258C8.08997 18.008 16.34 14.258 16.34 5.63304C16.34 5.42304 16.32 5.21504 16.28 5.01004C17.046 4.25504 17.84 2.25804 17.84 2.25804Z" stroke="black" stroke-opacity="0.99"/>
</g>
</g>
</g>
<defs>
<clipPath id="clip0_54_1471">
<rect width="18" height="18" fill="white" transform="translate(0.589966)"/>
</clipPath>
</defs>
</svg>
