<svg width="28" height="25" viewBox="0 0 28 25" fill="none" xmlns="http://www.w3.org/2000/svg">
<mask id="mask0_54_821" style="mask-type:luminance" maskUnits="userSpaceOnUse" x="0" y="0" width="28" height="25">
<path d="M0.46875 0.179688H27.6061V24.98H0.46875V0.179688Z" fill="white"/>
</mask>
<g mask="url(#mask0_54_821)">
<path fill-rule="evenodd" clip-rule="evenodd" d="M4.63081 20.7959C-1.43 15.427 -0.62648 6.712 5.45107 2.39401C9.7207 -0.637791 16.2205 -1.00979 20.359 4.15729C23.2922 7.81963 23.4931 13.0853 21.6349 16.264C20.4696 18.2486 17.7959 19.7171 16.16 17.7567C14.6711 15.9767 16.3321 14.3975 16.9143 12.319C18.9937 4.86688 8.6791 -0.411802 3.24511 6.75757C0.472779 10.4153 0.62809 16.0548 4.63081 20.7959Z" fill="#66697F"/>
<path fill-rule="evenodd" clip-rule="evenodd" d="M23.6469 4.53906C29.585 10.0465 28.5797 18.7411 22.4035 22.9159C18.0641 25.8491 11.5597 26.0704 7.54026 20.8122C4.69074 17.081 4.61262 11.8098 6.54423 8.67756C7.75323 6.72084 10.4605 5.31096 12.0563 7.31139C13.5034 9.12489 11.8015 10.6659 11.1747 12.7296C8.92689 20.1361 19.1141 25.6519 24.7127 18.6062C27.5669 15.0137 27.5418 9.36576 23.6497 4.53906H23.646H23.6469Z" fill="#5B5E71"/>
</g>
</svg>
