<svg width="28" height="27" viewBox="0 0 28 27" fill="none" xmlns="http://www.w3.org/2000/svg">
<mask id="mask0_54_780" style="mask-type:luminance" maskUnits="userSpaceOnUse" x="0" y="0" width="28" height="27">
<path d="M0.554688 0.256836H27.2217V26.9238H0.554688V0.256836Z" fill="white"/>
</mask>
<g mask="url(#mask0_54_780)">
<path d="M0.554688 13.5818C0.554688 17.2628 2.08669 20.8088 4.78069 23.3348C5.59969 21.9488 5.86469 20.2038 5.38269 18.4398C4.71769 15.9958 2.79669 14.1838 0.554688 13.5818Z" fill="#66697F"/>
<path d="M1.24438 9.38559C0.915995 10.3652 0.702891 11.3797 0.609375 12.4086C3.71438 12.7186 6.34937 16.2946 6.65537 20.8316C6.74374 22.0874 6.63544 23.3492 6.33438 24.5716C7.03338 25.0546 7.78838 25.4686 8.59438 25.8206C9.02138 23.7056 9.00637 21.3656 8.46037 19.0046C7.39537 14.3886 4.57438 10.8506 1.24438 9.38159V9.38559ZM15.6244 7.16959C18.9944 7.92759 22.2984 7.42759 24.8584 6.01059C24.3785 5.3123 23.8316 4.66255 23.2254 4.07059C20.9084 5.93559 17.0144 6.31759 13.2884 4.76659C11.3454 3.95959 9.74237 2.74459 8.60637 1.35059C8.25137 1.50359 7.90038 1.67259 7.56038 1.85859C9.24137 4.37859 12.1044 6.37759 15.6244 7.16959ZM27.0784 15.5666C27.186 14.8431 27.2345 14.112 27.2234 13.3806C24.4394 14.2586 21.8014 16.3026 20.0264 19.2656C18.6774 21.5196 18.0314 23.9596 18.0344 26.2616C18.3484 26.1606 18.6544 26.0486 18.9614 25.9246C19.2374 23.8286 20.3474 21.4296 22.1934 19.2916C23.6774 17.5726 25.4004 16.3016 27.0784 15.5696V15.5666Z" fill="#5B5E71"/>
<path d="M25.9207 7.85682C22.1607 9.57682 16.4107 9.40782 10.7107 7.03882C8.53669 6.13482 6.58569 4.99882 4.92269 3.72382C3.81679 4.72447 2.88922 5.906 2.17969 7.21782C6.48469 9.03082 10.0047 15.6898 10.5547 23.8438C10.6147 24.7518 10.6367 25.6448 10.6217 26.5188C12.4567 26.9868 14.3217 27.0428 16.1117 26.7358C16.3797 22.9838 18.3047 18.5558 21.6867 14.6438C23.2597 12.8238 24.9867 11.3028 26.7537 10.1108C26.5454 9.33564 26.2665 8.58116 25.9207 7.85682ZM14.3067 18.3918C8.94669 18.3918 8.95469 10.0768 14.3067 10.0768C19.6567 10.0768 19.6567 18.3918 14.3067 18.3918Z" fill="#72758D"/>
<path d="M16.2434 4.62882C18.3734 5.02082 20.5224 4.41882 22.1814 3.15582C21.2141 2.38523 20.1437 1.75378 19.0014 1.27982C16.559 0.26092 13.8678 -0.00444511 11.2734 0.517824C12.0434 2.58382 13.8434 4.18882 16.2434 4.62882ZM26.3404 18.3358C24.3824 18.6458 22.4424 19.9538 21.2054 22.0128C20.5829 23.0438 20.1963 24.1998 20.0734 25.3978C22.8355 23.9556 25.0023 21.5877 26.1944 18.7088C26.2474 18.5858 26.2914 18.4588 26.3404 18.3358Z" fill="#66697F"/>
</g>
</svg>
