<svg width="19" height="18" viewBox="0 0 19 18" fill="none" xmlns="http://www.w3.org/2000/svg">
<g clip-path="url(#clip0_54_1460)">
<g clip-path="url(#clip1_54_1460)">
<g opacity="0.6">
<path d="M10.8429 9.00015L8.35602 10.4212V7.5791L10.8429 9.00015Z" fill="white" stroke="black" stroke-opacity="0.99" stroke-width="0.947368" stroke-linecap="round" stroke-linejoin="round"/>
<path d="M2.31655 10.9457V7.05392C2.31353 6.27687 2.61249 5.52903 3.15035 4.96819C3.68821 4.40736 4.42289 4.0774 5.19939 4.04792C6.55602 4.00055 8.15139 3.95508 9.42181 3.95508C10.6932 3.95508 12.2886 3.9996 13.6452 4.04792C14.4215 4.07763 15.156 4.4077 15.6936 4.96851C16.2313 5.52932 16.5301 6.27702 16.5271 7.05392V10.9457C16.5301 11.7226 16.2313 12.4703 15.6936 13.0311C15.156 13.5919 14.4215 13.922 13.6452 13.9517C12.238 14.0059 10.83 14.0369 9.42181 14.0446C8.15139 14.0446 6.55602 14 5.19939 13.9517C4.42289 13.9222 3.68821 13.5923 3.15035 13.0314C2.61249 12.4706 2.31353 11.7228 2.31655 10.9457Z" stroke="black" stroke-opacity="0.99" stroke-width="0.947368"/>
</g>
</g>
</g>
<defs>
<clipPath id="clip0_54_1460">
<rect width="18" height="18" fill="white" transform="translate(0.580017)"/>
</clipPath>
<clipPath id="clip1_54_1460">
<rect width="18" height="18" fill="white" transform="translate(0.580017)"/>
</clipPath>
</defs>
</svg>
