<svg width="27" height="27" viewBox="0 0 27 27" fill="none" xmlns="http://www.w3.org/2000/svg">
<mask id="mask0_54_762" style="mask-type:luminance" maskUnits="userSpaceOnUse" x="0" y="0" width="27" height="27">
<path d="M0.72654 0.256836H26.9185V26.9238H0.72654V0.256836Z" fill="white"/>
</mask>
<g mask="url(#mask0_54_762)">
<path d="M14.0705 13.5979C14.0705 13.5979 8.36254 20.2319 0.72654 13.8279C0.72654 13.8279 6.74354 7.27187 14.0705 13.5979Z" fill="#66697F"/>
<path d="M14.071 13.5979C14.071 13.5979 5.34904 14.3079 4.41404 4.38686C4.41404 4.38686 13.301 3.94786 14.071 13.5979Z" fill="#5B5E71"/>
<path d="M14.0724 13.5978C14.0724 13.5978 7.36539 7.97384 13.6704 0.256836C13.6704 0.256836 20.3014 6.18984 14.0724 13.5978Z" fill="#66697F"/>
<path d="M14.0712 13.5983C14.0712 13.5983 13.2512 4.88627 23.1572 3.82227C23.1572 3.82227 23.7092 12.7023 14.0712 13.5983Z" fill="#5B5E71"/>
<path d="M13.5859 13.4348C13.5859 13.4348 19.1229 6.6568 26.9209 12.8648C26.9209 12.8648 21.0719 19.5708 13.5859 13.4348Z" fill="#72758D"/>
<path d="M14.0703 13.5977C14.0703 13.5977 22.7733 12.6647 23.9613 22.5597C23.9613 22.5597 15.0873 23.2237 14.0703 13.5977Z" fill="#66697F"/>
<path d="M14.0691 13.5977C14.0691 13.5977 20.9161 19.0477 14.8081 26.9227C14.8081 26.9227 8.02809 21.1617 14.0691 13.5977Z" fill="#5B5E71"/>
<path d="M14.0705 13.5978C14.0705 13.5978 15.1125 22.2878 5.23353 23.6008C5.23353 23.6008 4.45653 14.7358 14.0705 13.5978Z" fill="#72758D"/>
</g>
</svg>
