<svg width="636" height="382" viewBox="0 0 636 382" fill="none" xmlns="http://www.w3.org/2000/svg">
<path fill-rule="evenodd" clip-rule="evenodd" d="M394 0.104628C402.635 -0.277962 411.135 0.388698 419.5 2.10463C428.258 1.44465 437.091 1.11132 446 1.10463C456.414 1.23474 466.747 1.9014 477 3.10463C477 4.10463 477 5.10463 477 6.10463C483.013 4.82054 489.013 4.82054 495 6.10463C499.311 5.9309 503.311 6.93093 507 9.10463C507.838 9.44633 508.172 10.113 508 11.1046C508.075 13.8108 508.408 16.4774 509 19.1046C509 19.4379 509 19.7713 509 20.1046C507.324 20.788 506.657 22.1214 507 24.1046C503.333 24.1046 499.667 24.1046 496 24.1046C494.085 24.3891 492.419 24.0557 491 23.1046C489.398 21.5307 487.398 20.864 485 21.1046C478.591 20.5121 472.257 19.5121 466 18.1046C461.955 16.4273 457.622 15.7607 453 16.1046C451.891 15.3146 450.558 14.8146 449 14.6046C439.673 14.1048 430.339 13.9381 421 14.1046C401.886 12.5235 382.886 13.5235 364 17.1046C358.178 18.0937 352.178 18.7604 346 19.1046C335.885 19.4897 326.219 21.4897 317 25.1046C315.065 25.7541 313.065 26.0874 311 26.1046C306.71 25.8023 302.71 26.4689 299 28.1046C295.042 27.8557 291.376 28.5223 288 30.1046C283.236 30.3735 278.903 31.7068 275 34.1046C272.595 35.3728 269.928 36.0395 267 36.1046C264.307 36.1761 261.64 36.5095 259 37.1046C257.47 37.2445 256.47 37.9111 256 39.1046C255.667 39.1046 255.333 39.1046 255 39.1046C250.027 40.1853 245.027 41.1853 240 42.1046C238.633 43.4446 237.3 44.7779 236 46.1046C234.57 47.1421 232.903 47.8087 231 48.1046C228.348 48.0141 226.015 48.6808 224 50.1046C220.286 50.1948 216.952 51.1948 214 53.1046C210.61 53.6279 207.277 54.4612 204 55.6046C203.444 55.9872 203.111 56.4872 203 57.1046C197.277 58.2902 191.611 59.7902 186 61.6046C184.527 62.3142 183.86 63.4808 184 65.1046C179.173 64.5152 175.506 66.1819 173 70.1046C170.284 69.9908 168.284 70.9908 167 73.1046C164.139 72.9462 161.472 73.6129 159 75.1046C156.565 73.3253 155.565 73.9919 156 77.1046C154.333 77.1046 152.667 77.1046 151 77.1046C151 78.4379 151 79.7713 151 81.1046C146.474 80.8737 142.474 82.2071 139 85.1046C138.414 84.8953 137.914 84.562 137.5 84.1046C135.491 88.5555 131.991 90.8888 127 91.1046C127.219 92.2796 126.886 93.2796 126 94.1046C123.753 94.9788 121.42 95.3122 119 95.1046C119 96.4379 119 97.7716 119 99.1046C116.679 99.3756 114.679 98.7086 113 97.1046C112.693 98.4916 112.693 100.159 113 102.105C109.391 103.363 105.725 104.53 102 105.605C105.726 106.648 105.393 107.148 101 107.105C101 108.105 101 109.105 101 110.105C99.301 109.945 97.634 110.111 96 110.605C96.4574 111.019 96.791 111.519 97 112.105C95.8112 113.034 94.4778 113.367 93 113.105C93 114.105 93 115.105 93 116.105C91.3008 115.945 89.6341 116.111 88 116.605C88.8366 117.616 89.17 118.783 89 120.105C85.6342 124.132 81.6342 127.465 77 130.105C74.7512 130.685 73.0846 132.018 72 134.105C68.7148 138.057 65.0482 141.724 61 145.105C54.1919 144.893 51.5252 147.893 53 154.105C53 154.772 52.6667 155.105 52 155.105C50.2376 155.248 48.5709 154.914 47 154.105C45.8554 155.381 45.8554 156.714 47 158.105C46.1706 161.151 44.1706 162.818 41 163.105C41.3333 163.772 41.6667 164.438 42 165.105C40.8698 166.227 40.2031 167.561 40 169.105C39.0768 168.302 38.0768 168.135 37 168.605C35.8358 170.853 34.5025 173.019 33 175.105C32.414 174.896 31.914 174.562 31.5 174.105C31 175.272 30.1667 176.105 29 176.605C29.4574 177.019 29.7907 177.519 30 178.105C27.7436 182.245 26.0769 186.578 25 191.105C23.3762 190.965 22.2096 191.632 21.5 193.105C21.0034 195.415 20.8367 197.748 21 200.105C20.371 203.002 19.371 205.669 18 208.105C16.7502 208.182 15.9169 208.849 15.5 210.105C13.59 222.428 13.59 234.761 15.5 247.105C16.2568 248.92 17.0902 250.586 18 252.105C18.0181 256.434 19.3514 260.101 22 263.105C23.3948 266.005 24.5614 269.005 25.5 272.105C26.5487 273.989 28.0487 275.323 30 276.105C30.0617 280.173 32.0617 282.84 36 284.105C36.0106 285.622 36.6772 286.789 38 287.605C40.5652 289.685 43.2318 291.518 46 293.105C46.586 295.445 47.586 297.612 49 299.605C53.2444 302.033 57.5778 304.199 62 306.105C62.3333 306.105 62.6667 306.105 63 306.105C65.4061 308.205 67.0728 310.871 68 314.105C68.6667 313.772 69.3333 313.438 70 313.105C72.7749 315.959 76.1083 317.626 80 318.105C80 319.105 80 320.105 80 321.105C83.7326 321.475 87.3993 322.142 91 323.105C95.506 327.018 100.839 329.351 107 330.105C107.333 330.105 107.667 330.105 108 330.105C109.843 333.614 112.843 334.948 117 334.105C119.757 335.117 122.424 336.117 125 337.105C125.558 338.395 126.558 339.228 128 339.605C131.811 341.344 135.811 342.177 140 342.105C141.779 343.949 144.112 344.615 147 344.105C151.578 346.625 156.578 347.958 162 348.105C162.418 348.827 163.084 349.327 164 349.605C169.398 350.122 174.731 350.956 180 352.105C180.418 352.827 181.084 353.327 182 353.605C189.264 355.088 196.598 355.922 204 356.105C211.523 358.332 219.19 359.665 227 360.105C227.763 360.873 228.763 361.373 230 361.605C258.493 363.041 286.826 363.208 315 362.105C317.333 362.105 319.667 362.105 322 362.105C326 362.105 330 362.105 334 362.105C342.336 361.716 350.669 361.216 359 360.605C359.667 359.938 360.333 359.272 361 358.605C367.34 358.004 373.674 357.338 380 356.605C382.389 355.866 384.389 354.7 386 353.105C394.352 352.043 402.685 350.876 411 349.605C412.619 349.369 413.619 348.536 414 347.105C417.856 346.634 421.689 345.967 425.5 345.105C426.876 344.921 427.709 344.254 428 343.105C433.586 342.799 438.586 341.132 443 338.105C446.339 337.715 449.673 337.215 453 336.605C455.593 335.719 457.593 334.219 459 332.105C464.125 332.039 468.792 330.706 473 328.105C473.942 328.213 474.775 328.546 475.5 329.105C476.825 326.612 478.991 325.445 482 325.605C488.171 321.163 494.504 316.997 501 313.105C508.937 311.636 515.937 308.302 522 303.105C524.894 303.049 527.561 302.215 530 300.605C531.641 299.476 532.641 297.976 533 296.105C535.466 295.307 537.466 293.974 539 292.105C541.698 291.76 543.698 290.427 545 288.105C550.626 285.14 555.293 281.14 559 276.105C563.583 276.577 566.083 274.577 566.5 270.105C569.167 268.105 571.833 266.105 574.5 264.105C575.064 261.718 576.23 259.718 578 258.105C581.4 257.874 583.4 256.041 584 252.605C586.553 251.229 589.22 250.062 592 249.105C591.287 246.509 591.287 243.842 592 241.105C595.511 236.403 599.344 231.736 603.5 227.105C604.005 225.087 604.505 223.087 605 221.105C606.343 218.062 607.677 215.062 609 212.105C612.811 210.295 614.477 207.295 614 203.105C617.427 199.178 618.76 194.511 618 189.105C618.65 188.801 619.317 188.468 620 188.105C621.322 178.613 621.322 169.28 620 160.105C619.252 151.781 617.252 143.781 614 136.105C611.591 131.623 608.925 127.29 606 123.105C605.083 122.478 604.083 122.144 603 122.105C599.872 115.997 596.039 110.331 591.5 105.105C589.174 102.594 586.341 101.261 583 101.105C581.708 98.2036 579.708 95.8707 577 94.1046C577.209 93.5186 577.543 93.0186 578 92.6046C575.354 92.1072 572.687 91.9405 570 92.1046C568.473 92.1776 567.473 91.5109 567 90.1046C565.813 87.6292 563.813 86.6292 561 87.1046C559.367 83.8077 556.7 82.141 553 82.1046C550.788 79.2469 547.788 77.9136 544 78.1046C541.328 77.1032 538.662 76.1032 536 75.1046C534.893 72.6357 532.893 71.6357 530 72.1046C528.926 70.72 527.593 69.5533 526 68.6046C521.382 67.4462 516.716 66.6129 512 66.1046C510.434 62.8637 507.767 61.3637 504 61.6046C502.667 60.9379 502.667 60.2713 504 59.6046C498.967 59.4336 493.967 58.9336 489 58.1046C488 57.2713 487 56.4379 486 55.6046C482.683 55.1063 479.35 54.9396 476 55.1046C473.333 54.7713 470.667 54.4379 468 54.1046C461.954 52.111 455.62 51.111 449 51.1046C446.297 49.6416 443.297 48.8083 440 48.6046C433.007 47.9385 426.007 47.4385 419 47.1046C418.667 47.1046 418.333 47.1046 418 47.1046C400.209 45.1142 382.209 44.1142 364 44.1046C363.889 43.4872 363.556 42.9872 363 42.6046C358.798 41.5688 354.632 41.4021 350.5 42.1046C342.023 41.3446 333.523 40.8446 325 40.6046C323.534 39.9691 322.2 39.1358 321 38.1046C316.741 38.5461 312.908 39.8795 309.5 42.1046C304.987 40.8931 300.487 40.8931 296 42.1046C295.333 41.7713 294.667 41.4379 294 41.1046C297.048 40.1418 299.714 38.8085 302 37.1046C306.51 36.7202 310.843 36.0535 315 35.1046C320.526 35.426 325.86 35.0927 331 34.1046C333.629 32.8903 336.296 32.8903 339 34.1046C346 34.3914 352.666 33.3914 359 31.1046C360.935 30.4551 362.935 30.1218 365 30.1046C369.643 31.0851 374.31 32.0851 379 33.1046C390.281 32.0693 401.281 32.0693 412 33.1046C422.327 33.8537 432.66 34.5204 443 35.1046C444 35.1046 445 35.1046 446 35.1046C449.295 36.7525 452.961 37.9192 457 38.6046C461.01 39.1059 465.01 39.6059 469 40.1046C471.93 40.9036 474.93 41.2369 478 41.1046C478.558 42.3945 479.558 43.2278 481 43.6046C484.652 44.1032 488.318 44.2699 492 44.1046C493.779 45.9481 496.112 46.6148 499 46.1046C501.943 46.5848 504.61 47.5848 507 49.1046C507.111 49.722 507.444 50.222 508 50.6046C511.257 51.6475 514.59 52.1475 518 52.1046C523.638 53.9299 529.304 55.5966 535 57.1046C535.039 58.1878 535.373 59.1878 536 60.1046C540.352 61.4398 544.686 62.7731 549 64.1046C551.079 64.5753 553.079 65.2419 555 66.1046C562.358 71.6089 570.691 75.2756 580 77.1046C580.333 77.1046 580.667 77.1046 581 77.1046C582.562 81.338 585.562 83.6713 590 84.1046C590.667 84.4379 591.333 84.7713 592 85.1046C593.333 88.4379 595.667 90.7713 599 92.1046C600.146 96.151 602.813 98.4846 607 99.1046C608.623 101.82 609.29 104.82 609 108.105C610.052 107.956 611.052 108.122 612 108.605C614.914 112.005 617.58 115.505 620 119.105C621.333 120.105 622.667 121.105 624 122.105C627.661 129.748 630.995 137.414 634 145.105C637.204 167.924 636.37 190.59 631.5 213.105C630.119 215.24 629.119 217.573 628.5 220.105C625.942 220.018 623.775 220.352 622 221.105C622.825 221.991 623.825 222.324 625 222.105C624.051 224.342 623.384 226.676 623 229.105C621.22 230.595 620.554 232.595 621 235.105C619.047 238.725 616.381 241.725 613 244.105C611.75 244.182 610.917 244.849 610.5 246.105C610.006 247.739 609.84 249.406 610 251.105C609.571 253.752 608.238 255.752 606 257.105C604.241 258.476 602.241 259.476 600 260.105C598.663 264.051 596.996 267.718 595 271.105C592.734 271.464 590.901 270.797 589.5 269.105C589.167 269.438 588.833 269.772 588.5 270.105C588.755 271.52 589.255 273.02 590 274.605C589.727 276.138 589.394 277.638 589 279.105C587 279.105 585 279.105 583 279.105C583 280.105 583 281.105 583 282.105C582 282.105 581 282.105 580 282.105C580.099 284.842 579.765 287.509 579 290.105C574.749 292.349 570.749 295.016 567 298.105C563.96 298.475 561.293 299.642 559 301.605C556.731 302.363 554.564 302.196 552.5 301.105C552 302.272 551.167 303.105 550 303.605C551.813 303.559 553.479 303.725 555 304.105C551.11 308.009 547.11 308.009 543 304.105C542.667 304.438 542.333 304.772 542 305.105C543 306.438 544 307.772 545 309.105C543.396 310.784 542.729 312.784 543 315.105C542.667 315.105 542.333 315.105 542 315.105C537.98 315.167 534.98 316.834 533 320.105C532.527 321.511 531.527 322.178 530 322.105C526.886 322.16 524.552 323.493 523 326.105C522.527 327.511 521.527 328.178 520 328.105C516.954 328.33 514.621 329.663 513 332.105C512.658 332.943 511.992 333.277 511 333.105C503.625 334.176 497.291 337.176 492 342.105C490.301 341.945 488.634 342.111 487 342.605C485.744 343.022 485.077 343.855 485 345.105C479.093 344.703 474.093 346.537 470 350.605C467.802 350.978 465.635 351.478 463.5 352.105C459.602 354.182 455.769 356.182 452 358.105C449.253 357.792 446.586 358.125 444 359.105C442.647 360.788 440.98 362.121 439 363.105C434.892 364.457 430.892 365.79 427 367.105C421.989 366.939 416.989 367.106 412 367.605C411.084 367.883 410.418 368.383 410 369.105C407.901 370.217 405.567 370.884 403 371.105C398.654 370.939 394.321 371.106 390 371.605C389.444 371.988 389.111 372.488 389 373.105C380.585 372.73 372.585 374.063 365 377.105C364.333 377.105 363.667 377.105 363 377.105C340.532 379.208 318.032 380.542 295.5 381.105C270.7 379.723 245.866 378.723 221 378.105C216.451 377.981 212.118 377.314 208 376.105C202.765 374.155 197.098 373.488 191 374.105C190.333 374.105 189.667 374.105 189 374.105C189.131 373.229 188.798 372.562 188 372.105C185.705 371.173 183.371 370.34 181 369.605C172.923 368.856 164.923 367.689 157 366.105C157 365.105 157 364.105 157 363.105C154.313 363.269 151.646 363.102 149 362.605C145.752 360.522 142.252 359.022 138.5 358.105C138.167 358.772 137.833 359.438 137.5 360.105C135.095 359.331 132.595 358.831 130 358.605C121 355.085 112.334 350.752 104 345.605C98.893 343.81 93.56 342.81 88 342.605C85.5354 340.074 82.5354 338.574 79 338.105C78.1551 335.843 76.8217 335.176 75 336.105C72.8821 334.659 70.5488 333.992 68 334.105C63.8426 330.14 59.1759 326.64 54 323.605C52.5 321.772 51 319.938 49.5 318.105C48.1124 319.159 46.6124 319.325 45 318.605C43.0131 316.465 41.6798 313.965 41 311.105C39.3273 309.519 37.3273 308.852 35 309.105C27.1257 304.511 21.1257 298.178 17 290.105C15.0251 285.785 13.0251 281.452 11 277.105C10.1431 276.18 9.1431 275.513 8 275.105C5.52571 272.707 4.19238 269.707 4 266.105C3.31839 256.175 1.98506 246.342 0 236.605C0.86635 227.775 1.69969 218.941 2.5 210.105C4.70878 206.816 5.54212 203.149 5 199.105C5.76672 195.456 7.1001 192.123 9 189.105C11.3337 187.429 12.3337 185.096 12 182.105C11.8284 181.113 12.1618 180.447 13 180.105C13.8764 180.236 14.5431 179.903 15 179.105C16.5577 176.614 17.5577 173.948 18 171.105C18.3449 168.407 19.6782 166.407 22 165.105C23.5892 162.69 25.7559 160.69 28.5 159.105C29.7733 156.891 30.7733 154.558 31.5 152.105C36.1735 146.735 40.3402 141.068 44 135.105C50.5395 127.828 57.5395 120.995 65 114.605C70.853 112.171 75.853 108.504 80 103.605C88.9018 99.9916 96.568 94.6586 103 87.6046C104.245 86.8132 105.578 86.3132 107 86.1046C109.612 85.2341 112.279 84.5674 115 84.1046C115.115 81.6578 116.115 79.6578 118 78.1046C123.573 75.9846 128.907 73.3179 134 70.1046C138.827 69.8888 142.994 68.2222 146.5 65.1046C147.272 65.2494 147.939 65.5827 148.5 66.1046C149.944 64.4492 151.778 63.7826 154 64.1046C154 63.1046 154 62.1046 154 61.1046C157.687 60.4286 161.02 58.9286 164 56.6046C166.391 56.3178 168.724 55.8178 171 55.1046C171.667 55.4379 172.333 55.7713 173 56.1046C174.353 53.4387 176.019 51.1054 178 49.1046C189.521 43.1865 201.521 38.0198 214 33.6046C234.621 27.7832 255.288 22.2832 276 17.1046C279.682 17.2699 283.348 17.1032 287 16.6046C294.016 14.1131 301.016 11.9464 308 10.1046C312.014 10.2701 316.014 10.1034 320 9.60463C323.001 8.86683 325.668 7.70013 328 6.10463C330.448 5.13156 333.115 4.79823 336 5.10463C337.333 5.10463 338.667 5.10463 340 5.10463C346.342 5.27084 352.675 5.10417 359 4.60463C370.552 1.93785 382.218 0.437848 394 0.104628Z" fill="white"/>
</svg>
