<svg width="32" height="33" viewBox="0 0 32 33" fill="none" xmlns="http://www.w3.org/2000/svg">
<path fill-rule="evenodd" clip-rule="evenodd" d="M20.2803 29.928C19.1048 29.8208 18.5344 29.6101 17.3353 29.1686C15.1571 28.3656 12.9715 27.0303 10.9677 25.2863C8.99651 23.5713 7.37779 21.6146 6.26777 19.5781C5.37938 17.9467 4.82164 16.2698 4.66541 14.642L7.72661 15.2833C8.11357 17.9303 9.74319 20.7281 12.2121 23.1389C14.7556 25.6224 17.8113 27.3156 20.7381 27.6662L21.3158 32.5005L20.2784 29.9317L20.2803 29.928Z" fill="white"/>
<path fill-rule="evenodd" clip-rule="evenodd" d="M29.3603 21.108L29.4329 21.4804C29.6637 22.6577 29.5892 23.8059 29.3403 24.8432C28.739 27.363 26.8132 29.425 23.5267 29.9319C23.0871 29.9991 22.6402 30.0373 22.1896 30.0464H22.0715L21.9008 27.73H21.9662C22.1969 27.7264 22.424 27.7137 22.6511 27.6919C25.6414 27.4048 27.3419 25.5518 27.7543 23.2045C27.9014 22.3652 27.8815 21.4568 27.7089 20.5103L31.0208 20.6956L29.3603 21.1062V21.108Z" fill="white"/>
<path fill-rule="evenodd" clip-rule="evenodd" d="M29.6146 19.4237L27.6162 19.3946C27.4255 18.7715 27.1748 18.1502 26.8677 17.5397C26.6007 16.9584 26.29 16.3934 25.9357 15.8502C24.4442 13.1814 21.7754 10.9668 18.6652 9.60787C18.3581 9.46071 18.0493 9.32809 17.7423 9.20818L17.715 9.19728L17.0301 5.60741L18.0493 7.74208C24.0808 10.3436 27.9832 14.7311 29.6164 19.4237H29.6146Z" fill="white"/>
<path fill-rule="evenodd" clip-rule="evenodd" d="M13.3475 16.7309C13.4311 17.0779 13.551 17.4285 13.7036 17.7755C14.0452 18.5549 14.5629 19.3433 15.226 20.0882C15.9545 20.9075 16.8048 21.6143 17.7131 22.1248C18.1873 22.39 18.6797 22.608 19.1774 22.7552C19.4191 22.846 19.8732 22.9368 20.2366 22.9368L20.5091 25.0279C20.3601 25.0479 20.669 25.0188 20.5091 25.0279C20.5091 25.0279 20.1403 25.0533 19.4518 24.9026C18.765 24.7518 18.0801 24.5101 17.4116 24.1922C16.0981 23.5691 14.8391 22.6498 13.7363 21.5361C12.7026 20.4915 11.8887 19.3597 11.3491 18.2206C11.0003 17.4848 10.7641 16.7381 10.6515 16.0042L13.3493 16.7309H13.3475Z" fill="white"/>
<path fill-rule="evenodd" clip-rule="evenodd" d="M23.9609 19.2125C23.1434 16.7599 21.9625 14.6707 18.3545 12.7886L18.0565 11.1281L18.4489 11.2988C21.194 12.407 24.0518 14.2165 25.7777 19.3034L23.9609 19.2125Z" fill="white"/>
<path fill-rule="evenodd" clip-rule="evenodd" d="M21.4175 22.9371C22.3258 22.7554 22.6892 22.512 22.9363 22.3085C22.9672 22.2831 22.998 22.2576 23.0271 22.2322C23.5322 21.7853 23.8428 21.0949 23.9609 20.3937L25.8685 20.47C25.8685 20.47 25.8739 20.9078 25.7195 21.669C25.5324 22.5901 25.08 23.4076 24.3769 24.0108C23.9609 24.3669 23.4577 24.6485 22.8672 24.8356C22.2488 25.0124 22.0456 25.019 21.69 25.0264L21.4175 22.9371Z" fill="white"/>
<path fill-rule="evenodd" clip-rule="evenodd" d="M16.8883 10.7792C17.07 10.8191 17.0591 10.8064 17.2389 10.8555L17.6023 12.5814C17.4951 12.5614 17.1808 12.4506 17.0754 12.436C16.5685 12.3706 16.0926 12.3815 15.6511 12.4651C15.2223 12.5469 14.8317 12.6995 14.5065 12.9156C14.1269 13.1664 13.8053 13.5115 13.5764 13.9457C13.3493 14.3745 13.213 14.8959 13.2039 15.5009V15.5118L10.5824 14.8051V14.7651C10.6278 13.8858 10.8785 13.1391 11.2673 12.5341C11.667 11.9128 12.2156 11.4386 12.8479 11.1171C13.3856 10.8464 14.0197 10.6774 14.7009 10.6211C15.3931 10.563 16.1325 10.6138 16.8883 10.7773V10.7792Z" fill="white"/>
<path fill-rule="evenodd" clip-rule="evenodd" d="M10.8815 6.63778C10.6451 6.66514 10.4286 6.70383 10.1537 6.76862L9.45826 6.93727L9.53637 7.23211L8.13267 8.40177L7.94842 7.5524C7.52661 7.77394 7.07786 8.0583 6.69467 8.40913C5.42841 9.48827 4.77983 11.0107 4.7217 13.0509L0.797546 12.891L7.63575 14.1809V14.1536C7.63575 14.0228 7.63756 13.8957 7.64301 13.7667C7.74838 11.2523 9.10367 9.60636 10.9168 8.85241C12.4319 8.222 14.4558 8.21292 16.4778 8.78701C16.5831 8.81604 16.6883 8.84689 16.7936 8.87955L16.7939 8.88148H16.7957L16.7939 8.87966L16.7936 8.87955L16.5141 7.3536C15.3769 6.97754 14.2087 6.73773 13.0969 6.64689C12.7087 6.61472 12.2281 6.59964 11.8994 6.59269L11.0192 7.31534L10.8815 6.63778Z" fill="white"/>
<path fill-rule="evenodd" clip-rule="evenodd" d="M20.462 29.5445C19.2866 29.4373 18.7161 29.2266 17.5171 28.7851C15.3388 27.9821 13.1533 26.6468 11.1494 24.9028C9.17827 23.1878 7.55956 21.2311 6.44953 19.1946C5.56115 17.5631 5.00341 15.8863 4.84717 14.2585L7.90837 14.8998C8.29533 17.5468 9.92495 20.3446 12.3939 22.7554C14.9373 25.2389 17.9931 26.9321 20.9198 27.2827L21.4976 32.117L20.4602 29.5482L20.462 29.5445Z" fill="#00D9D9"/>
<path fill-rule="evenodd" clip-rule="evenodd" d="M29.542 20.7245L29.6147 21.0969C29.8454 22.2742 29.771 23.4224 29.5221 24.4597C28.9207 26.9795 26.995 29.0415 23.7085 29.5484C23.2688 29.6156 22.8219 29.6538 22.3714 29.6629H22.2533L22.0825 27.3465H22.1479C22.3786 27.3429 22.6057 27.3302 22.8328 27.3084C25.8232 27.0213 27.5236 25.1683 27.936 22.821C28.0832 21.9817 28.0632 21.0733 27.8906 20.1268L31.2025 20.3121L29.542 20.7227V20.7245Z" fill="white"/>
<path fill-rule="evenodd" clip-rule="evenodd" d="M29.7963 19.0402L27.7979 19.0111C27.6072 18.388 27.3565 17.7667 27.0494 17.1562C26.7824 16.5749 26.4717 16.0099 26.1174 15.4667C24.6259 12.7979 21.9571 10.5833 18.8469 9.22436C18.5398 9.0772 18.231 8.94458 17.924 8.82468L17.8967 8.81378L17.2118 5.2239L18.231 7.35857C24.2625 9.96014 28.1649 14.3476 29.7981 19.0402H29.7963Z" fill="#00D9D9"/>
<path fill-rule="evenodd" clip-rule="evenodd" d="M13.5292 16.3474C13.6128 16.6944 13.7327 17.045 13.8853 17.392C14.2269 18.1714 14.7446 18.9598 15.4077 19.7047C16.1362 20.524 16.9865 21.2308 17.8948 21.7413C18.369 22.0065 18.8614 22.2245 19.3591 22.3717C19.6008 22.4625 20.055 22.5533 20.4183 22.5533L20.6908 24.6444C20.5418 24.6644 20.8507 24.6353 20.6908 24.6444C20.6908 24.6444 20.322 24.6698 19.6335 24.519C18.9467 24.3683 18.2618 24.1266 17.5933 23.8087C16.2798 23.1856 15.0208 22.2663 13.918 21.1526C12.8843 20.108 12.0704 18.9762 11.5308 17.8371C11.182 17.1013 10.9458 16.3546 10.8332 15.6207L13.531 16.3474H13.5292Z" fill="white"/>
<path fill-rule="evenodd" clip-rule="evenodd" d="M24.1427 18.829C23.3252 16.3764 22.1443 14.2872 18.5363 12.405L18.2383 10.7445L18.6308 10.9153C21.3758 12.0235 24.2336 13.833 25.9595 18.9199L24.1427 18.829Z" fill="#00D9D9"/>
<path fill-rule="evenodd" clip-rule="evenodd" d="M21.5993 22.5536C22.5077 22.3719 22.871 22.1285 23.1181 21.925C23.149 21.8996 23.1799 21.8741 23.2089 21.8487C23.714 21.4018 24.0246 20.7114 24.1427 20.0102L26.0503 20.0865C26.0503 20.0865 26.0558 20.5243 25.9013 21.2855C25.7142 22.2066 25.2618 23.0241 24.5588 23.6273C24.1427 23.9834 23.6395 24.265 23.0491 24.4521C22.4306 24.6288 22.2274 24.6355 21.8718 24.6428L21.5993 22.5536Z" fill="white"/>
<path fill-rule="evenodd" clip-rule="evenodd" d="M17.0701 10.3957C17.2518 10.4356 17.2409 10.4229 17.4207 10.472L17.7841 12.1979C17.6769 12.1779 17.3626 12.0671 17.2572 12.0525C16.7504 11.9871 16.2744 11.998 15.8329 12.0816C15.4042 12.1633 15.0136 12.3159 14.6884 12.5321C14.3087 12.7829 13.9871 13.128 13.7582 13.5622C13.5311 13.991 13.3949 14.5124 13.3858 15.1174V15.1283L10.7642 14.4215V14.3816C10.8096 13.5023 11.0603 12.7556 11.4491 12.1506C11.8488 11.5293 12.3975 11.0551 13.0297 10.7336C13.5674 10.4629 14.2015 10.2939 14.8828 10.2376C15.5749 10.1795 16.3144 10.2303 17.0701 10.3938V10.3957Z" fill="#00D9D9"/>
<path fill-rule="evenodd" clip-rule="evenodd" d="M11.0632 6.25434C10.8268 6.2817 10.6103 6.32039 10.3354 6.38518L9.64003 6.55381L9.71814 6.84865L8.31444 8.01831L8.13019 7.16892C7.70836 7.39047 7.25958 7.67485 6.87638 8.02569C5.61011 9.10483 4.96154 10.6273 4.9034 12.6675L0.979248 12.5076L7.81745 13.7975V13.7702C7.81745 13.6394 7.81926 13.5122 7.82471 13.3832C7.93008 10.8689 9.28537 9.22292 11.0985 8.46897C12.6136 7.83856 14.6375 7.82948 16.6595 8.40357C16.7648 8.43261 16.87 8.46345 16.9753 8.49611L16.9756 8.49804H16.9774L16.9756 8.49622L16.9753 8.49611L16.6958 6.97016C15.5586 6.5941 14.3904 6.35429 13.2786 6.26345C12.8904 6.23128 12.4098 6.21621 12.0811 6.20925L11.2009 6.93188L11.0632 6.25434Z" fill="white"/>
<path d="M8.53022 1.38442L9.16463 0.86357L9.35359 1.61117L8.68746 2.15807L8.53022 1.38442Z" fill="white"/>
<path d="M4.92955 6.31929L6.04328 5.40491L6.37501 6.71735L5.20558 7.67745L4.92955 6.31929Z" fill="white"/>
<path d="M9.7961 3.70505L10.8236 2.86147L11.1296 4.07229L10.0508 4.95806L9.7961 3.70505Z" fill="white"/>
<path d="M7.3274 4.05402L8.11588 3.40667L8.35073 4.33583L7.52282 5.01555L7.3274 4.05402Z" fill="white"/>
<path d="M7.94553 6.70033L9.28238 5.58638L9.71806 7.23094L8.31435 8.4006L7.94553 6.70033Z" fill="white"/>
<path d="M10.9247 5.95601L12.0384 5.04163L12.3701 6.35407L11.2007 7.31417L10.9247 5.95601Z" fill="white"/>
<path d="M8.7118 1.02059L9.34621 0.499732L9.53517 1.24733L8.86904 1.79424L8.7118 1.02059Z" fill="white"/>
<path d="M5.11125 5.95601L6.22498 5.04163L6.55671 6.35407L5.38728 7.31417L5.11125 5.95601Z" fill="white"/>
<path d="M9.97786 3.34177L11.0054 2.49819L11.3114 3.70901L10.2325 4.59477L9.97786 3.34177Z" fill="white"/>
<path d="M7.50904 3.69074L8.29752 3.04339L8.53237 3.97255L7.70446 4.65227L7.50904 3.69074Z" fill="white"/>
<path d="M8.12717 6.33761L9.46402 5.22366L9.8997 6.86822L8.49599 8.03788L8.12717 6.33761Z" fill="white"/>
<path d="M11.1064 5.59273L12.2201 4.67835L12.5518 5.99079L11.3824 6.95089L11.1064 5.59273Z" fill="white"/>
</svg>
